<svg width="20" height="20" viewBox="0 0 20 20" fill="none" xmlns="http://www.w3.org/2000/svg">
<path d="M1.27274 3.81819C1.97591 3.81819 2.54548 3.24865 2.54548 2.54545C2.54548 2.30681 2.47866 2.08091 2.36412 1.89L1.27274 0L0.181364 1.89C0.0668184 2.08091 0 2.30681 0 2.54545C0 3.24865 0.569566 3.81819 1.27274 3.81819Z" transform="translate(8.45435 3)" fill="#E4643C"/>
<path d="M9.54548 1.27274H6.36364V0H5.0909V1.27274H1.9091C0.855901 1.27274 0 2.12864 0 3.18184V4.16183C0 4.8491 0.559991 5.40909 1.24727 5.40909C1.58136 5.40909 1.89317 5.27865 2.12864 5.04317L3.49045 3.68452L4.8491 5.03998C5.32002 5.5109 6.14093 5.5109 6.61182 5.03998L7.97363 3.68452L9.33228 5.03998C9.56773 5.27543 9.87957 5.4059 10.2137 5.4059C10.9009 5.4059 11.4609 4.84591 11.4609 4.15864V3.18184C11.4546 2.12864 10.5987 1.27274 9.54548 1.27274Z" transform="translate(4 7.45459)" fill="#E4643C"/>
<path d="M8.65139 0.684083L7.96731 0L7.28004 0.684083C6.44958 1.51454 4.99867 1.51454 4.16821 0.684083L3.4841 0L2.79683 0.684083C2.38637 1.10089 1.83592 1.32998 1.24727 1.32998C0.785891 1.32998 0.356345 1.18361 0 0.938619V3.87546C0 4.22545 0.286364 4.51182 0.636355 4.51182H10.8182C11.1682 4.51182 11.4545 4.22545 11.4545 3.87546V0.938649C11.0982 1.18364 10.6718 1.33001 10.2073 1.33001C9.61865 1.33001 9.0682 1.10092 8.65139 0.684083Z" transform="translate(4 12.4882)" fill="#E4643C"/>
</svg>
