<svg width="36" height="36" viewBox="0 0 36 36" fill="none" xmlns="http://www.w3.org/2000/svg">
<path fill-rule="evenodd" clip-rule="evenodd" d="M0 8C0 3.58172 3.58172 0 8 0H27.0921C31.5104 0 35.0921 3.58172 35.0921 8V24.5061C35.0921 28.9244 31.5104 32.5061 27.0921 32.5061H8C3.58172 32.5061 0 28.9244 0 24.5061V8Z" transform="translate(0.453857 2.72388)" fill="white" fill-opacity="0.6"/>
<path fill-rule="evenodd" clip-rule="evenodd" d="M0 2.1615C0 0.967736 0.967736 0 2.1615 0H4.8385C6.03226 0 7 0.967736 7 2.1615H0Z" transform="translate(21 0.605103)" fill="white" fill-opacity="0.8"/>
<g filter="url(#filter0_d)">
<path fill-rule="evenodd" clip-rule="evenodd" d="M7 15.1296C10.866 15.1296 14 11.7428 14 7.56482C14 3.38688 10.866 0 7 0C3.13401 0 0 3.38688 0 7.56482C0 11.7428 3.13401 15.1296 7 15.1296Z" transform="translate(11 11.4121)" fill="white" fill-opacity="0.8"/>
</g>
<defs>
<filter id="filter0_d" x="7" y="7.41211" width="22" height="23.1296" filterUnits="userSpaceOnUse" color-interpolation-filters="sRGB">
<feFlood flood-opacity="0" result="BackgroundImageFix"/>
<feColorMatrix in="SourceAlpha" type="matrix" values="0 0 0 0 0 0 0 0 0 0 0 0 0 0 0 0 0 0 255 0"/>
<feOffset/>
<feGaussianBlur stdDeviation="2"/>
<feColorMatrix type="matrix" values="0 0 0 0 0.895196 0 0 0 0 0.393151 0 0 0 0 0.23461 0 0 0 1 0"/>
<feBlend mode="normal" in2="BackgroundImageFix" result="effect1_dropShadow"/>
<feBlend mode="normal" in="SourceGraphic" in2="effect1_dropShadow" result="shape"/>
</filter>
</defs>
</svg>
