<svg width="74" height="60" viewBox="0 0 74 60" fill="none" xmlns="http://www.w3.org/2000/svg">
<path d="M69.4522 21.7347C69.366 20.85 69.2293 19.9679 69.0457 19.0967C71.015 18.4694 72.6279 17.0092 73.4345 15.0816C74.3311 12.9387 74.1205 10.4906 72.8712 8.53223L71.3945 6.21806C68.7922 2.13988 63.8647 0.0778903 59.1337 1.08757C58.0806 1.31228 57.1416 1.86055 56.4318 2.63251C53.0579 0.909104 49.2945 0 45.4822 0C41.6698 0 37.9065 0.909104 34.5327 2.63251C33.8228 1.86055 32.884 1.31228 31.8308 1.08757C27.0994 0.0781793 22.1723 2.13974 19.5698 6.21806L18.0931 8.53223C16.8436 10.4903 16.6331 12.9386 17.5296 15.0815C18.3363 17.0091 19.9493 18.4692 21.9185 19.0965C21.7348 19.9678 21.5981 20.8499 21.512 21.7345C18.6993 23.5792 16.9757 26.7389 16.9757 30.1221C16.9757 30.4064 16.989 30.6876 17.0084 30.9669C13.8689 32.7746 11.1004 35.2614 8.96922 38.197C7.8883 39.6857 6.97225 41.2938 6.23309 42.9786C5.59003 42.1821 4.60636 41.6712 3.50535 41.6712C1.57254 41.6714 0 43.2439 0 45.1769C0 47.4027 0.541185 49.1332 1.65405 50.4666C2.0078 50.8906 2.41604 51.2642 2.87225 51.5858C2.80607 51.7545 2.74263 51.9244 2.68367 52.0971C2.05376 53.9447 2.34408 55.9147 3.48006 57.5022C4.6159 59.0896 6.38699 60 8.33902 60H21.6637C22.7783 60 23.6889 59.1207 23.7444 58.0196H26.3746C27.1519 59.2107 28.4955 60 30.0208 60H34.3764C35.9858 60 37.3311 58.8493 37.6335 57.3275C37.871 57.2552 38.1059 57.178 38.3384 57.0952C38.9364 58.7854 40.5497 59.9999 42.4421 59.9999H46.7975C48.6289 59.9999 50.1188 58.51 50.1188 56.6786C50.1188 54.8473 48.6289 53.3575 46.7975 53.3575C46.6238 53.3575 46.4822 53.2162 46.4822 53.0423V50.5569C46.9344 49.8351 47.3306 49.0728 47.6663 48.2753C53.279 47.8435 58.4688 45.7506 62.5001 42.2662C68.8941 41.914 73.988 36.6023 73.988 30.122C73.9884 26.7387 72.2649 23.5792 69.4522 21.7347ZM57.5887 5.00491C57.9526 4.13555 58.6897 3.52413 59.6116 3.32746C60.2553 3.19003 60.903 3.12341 61.5458 3.12341C64.7001 3.12341 67.7266 4.72775 69.4636 7.45L70.9403 9.76416C71.7987 11.1095 71.9377 12.7253 71.3217 14.1974C70.7058 15.6695 69.4574 16.7048 67.8967 17.0377C65.7509 17.4957 63.5166 16.5604 62.3364 14.711L57.8137 7.62312C57.3071 6.82876 57.2249 5.87442 57.5887 5.00491ZM35.0812 8.8552C35.8877 7.59104 36.0935 6.0448 35.6671 4.625C37.5841 3.65723 39.6386 2.97991 41.7551 2.6133C44.3348 5.09783 45.8049 8.53251 45.8049 12.122C45.8049 19.4012 39.8828 25.3231 32.6038 25.3231C29.3275 25.3231 26.2202 24.1263 23.7931 21.9452C23.8751 21.1053 24.0068 20.2676 24.1863 19.4415C26.7259 19.4305 29.1594 18.1355 30.5585 15.9429L35.0812 8.8552ZM19.6425 14.1974C19.0266 12.7253 19.1655 11.1095 20.0238 9.76431L21.5006 7.45014C23.5915 4.17312 27.5503 2.5159 31.3527 3.32746C32.2746 3.52413 33.0117 4.13555 33.3756 5.00491C33.7395 5.87428 33.6572 6.82861 33.1503 7.62327L28.6277 14.7111C27.4475 16.5607 25.2132 17.4955 23.0675 17.0379C21.5071 16.7048 20.2585 15.6695 19.6425 14.1974ZM12.1004 37.9558C12.1471 37.9548 12.1926 37.9542 12.2373 37.9542C16.4163 37.9542 19.8159 41.354 19.8159 45.5329C19.8159 46.8974 19.4441 48.2178 18.7697 49.366C18.9088 48.0092 18.4666 46.6507 17.5543 45.6361C16.6376 44.6165 15.3254 44.0316 13.9542 44.0316C11.6324 44.0316 9.42948 44.7061 7.56243 45.8945C8.54263 42.9767 10.0939 40.276 12.1004 37.9558ZM3.92977 49.5129C3.74119 49.3562 3.56777 49.1854 3.41243 48.9993C2.65737 48.0944 2.29032 46.8442 2.29032 45.177C2.29032 44.5071 2.8354 43.9621 3.50549 43.9621C4.17543 43.9621 4.72066 44.5072 4.72066 45.177C4.72066 45.8276 4.78454 46.3399 4.91517 46.7473C4.74162 47.4033 4.59538 48.0662 4.47514 48.7334C4.28367 48.985 4.10159 49.2448 3.92977 49.5129ZM8.33902 57.7097V57.7095C7.13541 57.7095 6.04321 57.1481 5.34263 56.1692C4.64205 55.1902 4.46315 53.9754 4.85145 52.836C6.17977 48.9397 9.83786 46.3221 13.9543 46.3221C14.6874 46.3221 15.3611 46.6223 15.8512 47.1676C16.3412 47.7127 16.5684 48.4144 16.4906 49.1435L16.0439 53.3302C15.9811 53.9204 16.1725 54.512 16.5694 54.9535C16.9662 55.3949 17.5342 55.6481 18.1277 55.6481H19.1934C20.374 55.6481 21.3465 56.5558 21.4503 57.71H8.33902V57.7097ZM34.3766 57.7095H30.021C28.8841 57.7095 27.9591 56.7845 27.9591 55.6477V49.6929C27.9591 48.642 28.8142 47.787 29.865 47.787C30.9159 47.787 31.7708 48.642 31.7708 49.6929V53.0422C31.7708 54.4789 32.9396 55.6477 34.3764 55.6477C34.9449 55.6477 35.4072 56.1103 35.4072 56.6785C35.4074 57.2471 34.9451 57.7095 34.3766 57.7095ZM37.2647 55.0419C36.6931 54.037 35.6132 53.3574 34.3766 53.3574C34.2027 53.3574 34.0613 53.216 34.0613 53.0422V49.6929C34.0613 47.379 32.1789 45.4967 29.8652 45.4967C27.5513 45.4967 25.6689 47.379 25.6689 49.6929V55.6477C25.6689 55.675 25.6705 55.7019 25.6711 55.729H23.1906C22.4158 54.3169 20.9146 53.3575 19.1935 53.3575H18.3445L18.3533 53.2746C20.7123 51.4081 22.1062 48.5529 22.1062 45.5329C22.1062 40.7493 18.6847 36.751 14.1608 35.8535C15.1711 34.9428 16.2623 34.1166 17.4251 33.3893C18.7983 38.3055 23.1866 41.9756 28.4637 42.2662C32.9244 46.1217 38.803 48.2734 45.1038 48.3564C43.4697 51.521 40.6617 53.9233 37.2647 55.0419ZM46.7978 55.6478C47.3663 55.6478 47.8286 56.1104 47.8286 56.6786C47.8286 57.2471 47.366 57.7094 46.7978 57.7094H42.4423C41.4855 57.7094 40.6814 57.0533 40.4497 56.1682C41.8412 55.4316 43.1095 54.4941 44.2184 53.3915C44.39 54.6633 45.4799 55.6478 46.7978 55.6478ZM45.4822 46.0699C40.5049 46.0699 35.8119 44.6682 31.9827 42.0802C34.677 41.691 37.2517 40.7536 39.5533 39.338C39.9384 42.2672 42.4494 44.5364 45.4821 44.5364C48.5146 44.5364 51.0259 42.2673 51.4108 39.338C53.7124 40.7535 56.2871 41.6908 58.9815 42.0802C55.1525 44.6682 50.4593 46.0699 45.4822 46.0699ZM45.4822 39.2379C46.1146 39.2379 46.6275 38.7251 46.6275 38.0926V35.2591C46.691 35.3134 46.752 35.3708 46.8075 35.4345C47.5366 36.2737 48.329 37.0429 49.1737 37.7396V38.5545C49.1737 40.5899 47.5178 42.246 45.4822 42.246C43.4468 42.246 41.7909 40.59 41.7909 38.5545V37.7396C42.6355 37.0431 43.428 36.2738 44.1571 35.4345C44.2126 35.3708 44.2736 35.3134 44.337 35.2591V38.0925C44.337 38.7251 44.8496 39.2379 45.4822 39.2379ZM61.8247 39.9955C56.7277 39.9955 51.8843 37.7857 48.5361 33.9325C47.771 33.0519 46.6579 32.5468 45.4822 32.5468C44.3066 32.5468 43.1935 33.0519 42.4283 33.9325C39.0802 37.7857 34.2369 39.9955 29.1397 39.9955C23.6955 39.9955 19.2663 35.5663 19.2663 30.122C19.2663 27.6277 20.4816 25.2912 22.4841 23.8461C25.2988 26.2815 28.8575 27.6136 32.6042 27.6136C41.1461 27.6136 48.0957 20.664 48.0957 12.1221C48.0957 8.52558 46.8392 5.06142 44.5882 2.31098C44.8858 2.2987 45.1838 2.29032 45.4824 2.29032C48.8978 2.29032 52.2692 3.09668 55.2973 4.62529C54.8708 6.04494 55.0766 7.59118 55.8831 8.85549L60.4058 15.9434C61.8049 18.1361 64.2382 19.4309 66.7779 19.4419C66.996 20.4468 67.1441 21.4683 67.2179 22.4906C67.2454 22.8712 67.4607 23.2131 67.7921 23.4025C70.2013 24.7788 71.6981 27.3538 71.6981 30.1224C71.6981 35.5662 67.2689 39.9955 61.8247 39.9955Z" fill="#E4643C"/>
<path d="M1.14523 3.99566C1.7776 3.99566 2.29046 3.48295 2.29046 2.85043V1.14523C2.29046 0.512715 1.77774 0 1.14523 0C0.512715 0 0 0.512715 0 1.14523V2.85058C0 3.48309 0.512715 3.99566 1.14523 3.99566Z" transform="translate(34.2366 17.9001)" fill="#E4643C"/>
<path d="M9.80857 0H2.15799C1.31117 0 0.562903 0.476878 0.205099 1.24436C-0.152704 2.01199 -0.0365222 2.89162 0.507986 3.53988L1.57822 4.8146C2.67374 6.11936 4.27937 6.86778 5.98328 6.86778C7.68718 6.86778 9.29267 6.11951 10.3882 4.8146L11.4584 3.53988C12.0031 2.89147 12.1191 2.01171 11.7613 1.24422C11.4038 0.476734 10.6555 0 9.80857 0ZM8.63443 3.34191C7.97518 4.12717 7.00886 4.57746 5.98342 4.57746C4.95799 4.57746 3.99166 4.12702 3.33241 3.34191L2.44961 2.29032H9.51752L8.63443 3.34191Z" transform="translate(39.4988 25.2592)" fill="#E4643C"/>
<path d="M1.14523 0C0.512715 0 0 0.512717 0 1.14523V2.85058C0 3.48309 0.512715 3.99581 1.14523 3.99581C1.7776 3.99581 2.29046 3.48309 2.29046 2.85058V1.14523C2.29046 0.512573 1.77774 0 1.14523 0Z" transform="translate(54.4374 17.9003)" fill="#E4643C"/>
</svg>
