<svg width="30" height="30" viewBox="0 0 30 30" fill="none" xmlns="http://www.w3.org/2000/svg">
<path d="M1.06181 0.240033C0.871649 -0.0211174 0.506781 -0.078012 0.246878 0.113061L0.232067 0.124136C-0.0255624 0.318256 -0.0758871 0.684112 0.117364 0.942978C0.231658 1.09608 0.406774 1.17647 0.584164 1.17647C0.706739 1.17647 0.830363 1.13809 0.935619 1.05876C1.19541 0.867685 1.25191 0.501184 1.06181 0.240033Z" transform="translate(6.12161 8.53876)" fill="#E4643C"/>
<path d="M5.19103 0.484745C5.13534 0.165997 4.83281 -0.0469902 4.51587 0.00890787C3.02941 0.271055 1.61262 0.766169 0.304767 1.48048C0.0217715 1.63499 -0.0829009 1.99083 0.0709301 2.27512C0.176652 2.47053 0.376959 2.58133 0.583738 2.58133C0.677798 2.58133 0.773257 2.55837 0.861718 2.51008C2.05837 1.85653 3.35561 1.40331 4.71741 1.1632C5.03463 1.10718 5.24666 0.803434 5.19103 0.484745Z" transform="translate(7.5452 6.22398)" fill="#E4643C"/>
<path d="M26.7334 9.72111C27.3939 6.88396 27.1028 2.48389 25.6891 0.772612C25.1224 0.0867763 24.5086 -0.0253129 24.0892 0.00421821C21.9891 0.0844326 18.5493 2.71141 17.4043 4.19728C16.4831 4.03814 15.5378 3.95646 14.5785 3.95646C13.6191 3.95646 12.6739 4.0382 11.7526 4.19728C10.6076 2.71147 7.16789 0.0844326 5.06762 0.00421821C4.64793 -0.0250199 4.03436 0.0867763 3.46779 0.772612C2.05403 2.48389 1.76299 6.88402 2.42351 9.72117C0.846945 11.8146 0 14.2721 0 16.847C0 22.012 3.45916 26.6536 8.81916 28.6923C8.97555 28.799 9.1411 28.8997 9.31686 28.9938C10.5649 29.6614 12.3352 29.9999 14.5785 29.9999C16.8217 29.9999 18.592 29.6614 19.8401 28.9938C20.0159 28.8997 20.1814 28.799 20.3379 28.6923C25.6979 26.6536 29.157 22.012 29.157 16.847C29.1569 14.272 28.31 11.8147 26.7334 9.72111ZM24.1403 1.17497C24.1487 1.17474 24.1571 1.17421 24.1655 1.17363C24.2439 1.16747 24.4842 1.1489 24.7917 1.52108C25.7445 2.67444 26.1522 5.94875 25.7639 8.57737C25.5086 8.30831 25.2397 8.04722 24.9576 7.7945C25.0602 4.82089 24.6657 3.34738 23.6526 2.88801C22.7107 2.46086 21.5066 3.0216 19.6593 4.75814C19.3438 4.65466 19.024 4.56079 18.7004 4.47695C19.9309 3.18584 22.6722 1.22431 24.1403 1.17497ZM23.8067 6.86492C22.9037 6.2102 21.9245 5.65971 20.8884 5.21944C22.425 3.86248 22.9913 3.87373 23.1728 3.95605C23.3748 4.04757 23.7981 4.52083 23.8067 6.86492ZM4.36517 1.52108C4.67254 1.14902 4.91262 1.16753 4.9914 1.17363C4.9998 1.17427 5.00819 1.17474 5.01659 1.17497C6.48481 1.22431 9.22607 3.18584 10.4565 4.47689C10.1329 4.56073 9.81317 4.6546 9.49757 4.75808C7.65038 3.02154 6.44621 2.46092 5.50438 2.88789C4.49125 3.34727 4.09676 4.82071 4.19927 7.7945C3.91721 8.04722 3.64832 8.30837 3.39297 8.57737C3.00472 5.94881 3.41233 2.67444 4.36517 1.52108ZM8.26862 5.2195C7.2325 5.65971 6.25325 6.2102 5.35032 6.86504C5.35889 4.52083 5.78225 4.04769 5.98419 3.95611C6.1656 3.87367 6.73194 3.86254 8.26862 5.2195ZM19.755 27.6728C19.7359 27.6847 19.7177 27.6976 19.7004 27.7114C18.7745 28.3466 17.2129 28.8279 14.5783 28.8279C11.9436 28.828 10.3818 28.3464 9.45594 27.7112C9.43885 27.6976 9.42095 27.6848 9.40212 27.6731C8.10872 26.7524 8.10808 25.5283 8.10808 24.9704C8.10808 23.2596 9.03346 21.065 10.5473 19.5121C10.5474 19.5121 10.5475 19.512 10.5475 19.512C10.5475 19.512 10.5476 19.5119 10.5476 19.5118C11.0204 19.0269 11.5504 18.6049 12.1279 18.2796C12.29 18.5721 12.5205 18.8501 12.8144 19.1007C13.1787 19.4111 13.5935 19.6375 13.9952 19.7541V22.1276C13.7947 22.4023 13.4811 22.5684 13.1486 22.5684C12.7717 22.5684 12.4189 22.3552 12.228 22.012C12.0708 21.7296 11.7156 21.6286 11.4345 21.7865C11.1533 21.9444 11.0529 22.3014 11.21 22.5838C11.6069 23.2971 12.3497 23.7402 13.1486 23.7402C13.6782 23.7402 14.1824 23.5446 14.5783 23.2056C14.9741 23.5446 15.4784 23.7402 16.0079 23.7402C16.8068 23.7402 17.5496 23.2971 17.9466 22.5839C18.1037 22.3015 18.0033 21.9444 17.7222 21.7865C17.441 21.6285 17.0858 21.7295 16.9286 22.0119C16.7376 22.3551 16.3848 22.5684 16.0079 22.5684C15.6754 22.5684 15.3618 22.4023 15.1614 22.1275V19.7541C15.5632 19.6374 15.9779 19.4111 16.3421 19.1006C16.6361 18.8501 16.8665 18.572 17.0285 18.2796C17.606 18.6048 18.136 19.0268 18.6088 19.5117C18.6089 19.5117 18.6089 19.5118 18.609 19.5119C18.6091 19.512 18.6093 19.5121 18.6094 19.5122C20.1232 21.0651 21.0485 23.2596 21.0485 24.9703C21.0487 25.5281 21.048 26.7521 19.755 27.6728ZM13.0191 17.2698C13.0191 17.0609 13.0191 16.506 14.5784 16.506C16.1377 16.506 16.1377 17.0609 16.1377 17.2698C16.1377 17.9511 15.1238 18.6717 14.5784 18.6717C14.0331 18.6717 13.0191 17.9511 13.0191 17.2698ZM21.9483 26.64C22.1255 26.137 22.2151 25.5802 22.2151 24.9704C22.2151 24.2327 22.0785 23.4384 21.8234 22.6426C22.5741 22.5432 23.3268 22.6635 24.0688 23.0047C24.1475 23.0408 24.23 23.0579 24.3111 23.0579C24.5322 23.0579 24.7437 22.9309 24.8417 22.7157C24.9758 22.4214 24.847 22.0737 24.5541 21.9391C23.5123 21.46 22.4489 21.3221 21.3863 21.5259C21.2735 21.2819 21.1497 21.0404 21.0161 20.8028C22.4492 20.0953 24.0176 19.8898 25.6869 20.1932C26.004 20.2507 26.3072 20.0393 26.3646 19.7209C26.4218 19.4024 26.2114 19.0976 25.8945 19.04C23.925 18.6821 22.0736 18.9418 20.3823 19.8108C20.2193 19.5854 20.0487 19.3689 19.8715 19.162C21.0498 18.2203 22.4533 17.7109 24.0529 17.648C24.3747 17.6354 24.6254 17.363 24.6128 17.0397C24.6003 16.7163 24.3291 16.4652 24.0074 16.4771C22.1099 16.5515 20.4461 17.1703 19.0533 18.318C18.504 17.819 17.912 17.4059 17.2968 17.0961C17.2378 16.3685 16.7687 15.3343 14.5785 15.3343C12.3883 15.3343 11.9192 16.3685 11.8603 17.0961C11.245 17.4059 10.6529 17.819 10.1036 18.318C8.71093 17.1704 7.04713 16.5515 5.14955 16.4771C4.8276 16.4649 4.55667 16.7163 4.54414 17.0397C4.53154 17.363 4.78223 17.6354 5.10406 17.648C6.70366 17.7109 8.10715 18.2203 9.28549 19.162C9.10827 19.3689 8.93777 19.5855 8.77478 19.8109C7.08351 18.9418 5.23194 18.6821 3.26252 19.0401C2.94559 19.0977 2.73519 19.4026 2.79252 19.721C2.84984 20.0394 3.15342 20.2509 3.47012 20.1932C5.13958 19.8898 6.70792 20.0953 8.14103 20.8028C8.00737 21.0405 7.88363 21.2819 7.77085 21.526C6.70815 21.3221 5.6448 21.46 4.60292 21.9392C4.31007 22.0738 4.18137 22.4215 4.31537 22.7158C4.4134 22.931 4.62484 23.058 4.84597 23.058C4.92714 23.058 5.00965 23.0409 5.08826 23.0047C5.83018 22.6635 6.58301 22.5432 7.33374 22.6427C7.07856 23.4385 6.94199 24.2327 6.94199 24.9705C6.94199 25.5803 7.03156 26.1371 7.20883 26.6401C3.47723 24.4972 1.16639 20.8403 1.16639 16.8471C1.16627 10.3853 7.18294 5.12827 14.5784 5.12827C21.9739 5.12827 27.9906 10.3853 27.9906 16.8471C27.9906 20.8404 25.6799 24.4971 21.9483 26.64Z" fill="#E4643C"/>
<path d="M4.49185 1.31911C4.03939 0.505485 3.19303 0 2.28305 0C1.37307 0 0.526646 0.505486 0.0741911 1.31917C-0.0829055 1.60165 0.0176282 1.95866 0.298816 2.11645C0.579945 2.27424 0.935249 2.17329 1.09229 1.89069C1.33884 1.44726 1.79514 1.17181 2.28305 1.17181C2.7709 1.17181 3.22714 1.44726 3.47375 1.89069C3.58052 2.08276 3.77885 2.19092 3.9833 2.19092C4.07957 2.19092 4.17719 2.1669 4.26722 2.11639C4.54835 1.95854 4.64895 1.60159 4.49185 1.31911Z" transform="translate(16.0219 11.862)" fill="#E4643C"/>
<path d="M4.49183 1.31923C4.03949 0.505485 3.19308 0 2.28304 0C1.373 0 0.526633 0.505486 0.0741791 1.31917C-0.0829174 1.60165 0.0176736 1.95866 0.298803 2.11645C0.388839 2.16696 0.486397 2.19098 0.582673 2.19098C0.787061 2.19098 0.985502 2.08276 1.09227 1.89075C1.33882 1.44732 1.79507 1.17187 2.28298 1.17187C2.77089 1.17187 3.22713 1.44732 3.47362 1.89069C3.63072 2.17323 3.98596 2.2743 4.26709 2.11651C4.54822 1.95866 4.64887 1.60171 4.49183 1.31923Z" transform="translate(8.56891 11.862)" fill="#E4643C"/>
</svg>
