<svg width="75" height="80" viewBox="0 0 75 80" fill="none" xmlns="http://www.w3.org/2000/svg">
<path fill-rule="evenodd" clip-rule="evenodd" d="M33.3355 23.9828C32.7728 22.0079 30.9483 20.5566 28.7891 20.5566H20.625V17.1176C21.7979 17.6744 23.1089 17.9871 24.4922 17.9871C29.4676 17.9871 33.5156 13.9526 33.5156 8.99353C33.5156 4.03442 29.4676 0 24.4922 0C22.991 0 21.5757 0.369324 20.329 1.01843C20.2995 1.03143 20.2699 1.04443 20.2409 1.05988C20.2322 1.06439 20.224 1.06952 20.2158 1.07458L20.2085 1.0791L20.1986 1.08502C18.8825 1.79767 17.7648 2.82825 16.9458 4.07123C16.4692 3.92938 15.9724 3.85437 15.4688 3.85437C12.6256 3.85437 10.3125 6.15979 10.3125 8.99353V22.4319C5.7262 20.0885 2.57812 15.3303 2.57812 9.85004C2.57812 9.1405 2.00113 8.56525 1.28906 8.56525C0.576996 8.56525 0 9.1405 0 9.85004C0 16.7845 4.26233 22.7448 10.3125 25.2668V30.4067C10.3125 31.1163 10.8895 31.6915 11.6016 31.6915C12.3136 31.6915 12.8906 31.1163 12.8906 30.4067V26.1027C13.7278 26.3005 14.5887 26.4364 15.4688 26.5035V50.1069C15.4688 50.8164 16.0457 51.3917 16.7578 51.3917H18.1526L16.6741 76.9278C16.6406 77.5071 17.0009 78.0372 17.5533 78.2206L22.7095 79.9337C22.8448 79.9786 22.9823 80 23.1174 80C23.6572 80 24.1599 79.6594 24.3401 79.1212C24.5652 78.448 24.2002 77.7205 23.5249 77.496L19.3047 76.0939L20.7348 51.3917H28.4649L26.9865 76.9278C26.9529 77.5071 27.3132 78.0372 27.8656 78.2206L33.0218 79.9337C33.1571 79.9786 33.2946 80 33.4297 80C33.9695 80 34.4723 79.6594 34.6524 79.1212C34.8776 78.448 34.5125 77.7205 33.8372 77.496L29.617 76.0939L31.0473 51.3917H32.2266C32.9387 51.3917 33.5156 50.8164 33.5156 50.1069V26.5524C40.7321 27.204 47.0599 33.2872 47.0599 40.6469C47.0599 41.3564 47.6369 41.9316 48.349 41.9316C49.0611 41.9316 49.6381 41.3564 49.6381 40.6469C49.6381 31.8123 42.0556 24.559 33.3355 23.9828ZM30.9375 25.2675V37.6872H18.0469V25.2675C18.0469 24.0867 19.0106 23.1262 20.1953 23.1262H28.7891C29.9738 23.1262 30.9375 24.0867 30.9375 25.2675ZM30.9375 48.822V40.2568H18.0469V48.822H30.9375ZM15.6621 23.9365C14.7089 23.8635 13.7823 23.6965 12.8906 23.4442V8.99353C12.8906 7.57666 14.0472 6.42395 15.4688 6.42395C15.5397 6.42395 15.6104 6.427 15.6807 6.4328C15.7336 6.43719 15.7862 6.44318 15.8384 6.45068C15.5994 7.25751 15.4688 8.11047 15.4688 8.99353C15.4688 11.4379 16.4536 13.6565 18.0469 15.2791V21.0737C16.9049 21.6571 16.0313 22.6896 15.6621 23.9365ZM30.8203 10.2084C26.5982 9.79266 22.7941 7.51978 20.437 4.00513C18.9802 5.1839 18.0469 6.98187 18.0469 8.99353C18.0469 12.5358 20.9382 15.4175 24.4922 15.4175C27.6294 15.4175 30.2488 13.1715 30.8203 10.2084ZM24.4922 2.56958C27.5727 2.56958 30.1537 4.73505 30.7873 7.61865C27.5433 7.21747 24.6259 5.47424 22.7432 2.81183C23.2997 2.65521 23.886 2.56958 24.4922 2.56958Z" transform="translate(2.41461)" fill="#E4643C"/>
<path fill-rule="evenodd" clip-rule="evenodd" d="M0 1C0 0.447715 0.335786 0 0.75 0H9.25C9.66421 0 10 0.447715 10 1C10 1.55228 9.66421 2 9.25 2H0.75C0.335786 2 0 1.55228 0 1Z" transform="translate(7.36462 8.85999) rotate(124.923)" fill="#E4643C"/>
<path d="M27.0703 0C26.3582 0 25.7813 0.575244 25.7813 1.28479V2.56958H23.2031V1.28479C23.2031 0.575244 22.6261 0 21.9141 0C21.202 0 20.625 0.575244 20.625 1.28479V2.56958H16.9311C16.219 2.56958 15.642 3.14483 15.642 3.85437V7.28048C15.642 8.95534 16.7198 10.3835 18.2201 10.9139V12.4196C18.2201 13.2212 17.5271 14.0544 16.7368 14.2031L2.57813 16.8655V15.8458C2.57813 15.1362 2.00114 14.561 1.28906 14.561C0.576984 14.561 0 15.1362 0 15.8458V18.3931C0 18.3967 0 38.9725 0 38.9725C0 39.6821 0.576984 40.2573 1.28906 40.2573C2.00114 40.2573 2.57813 39.6821 2.57813 38.9725V33.2744C5.0997 32.762 7.09122 30.779 7.60495 28.2654H10.3125V38.9725C10.3125 39.6821 10.8895 40.2573 11.6016 40.2573C12.3136 40.2573 12.8906 39.6821 12.8906 38.9725V28.2654H20.7022L20.625 38.9633C20.62 39.6728 21.1929 40.2522 21.9048 40.2573H21.9142C22.6218 40.2573 23.198 39.6882 23.2031 38.9818L23.2805 28.2654H25.7813V38.9725C25.7813 39.6821 26.3582 40.2573 27.0703 40.2573C27.7824 40.2573 28.3594 39.6821 28.3594 38.9725V1.28479C28.3594 0.575244 27.7824 0 27.0703 0ZM25.7813 25.6958H6.44531C5.73323 25.6958 5.15625 26.2711 5.15625 26.9806C5.15625 28.6558 4.07842 30.084 2.57813 30.6145V19.4805L17.2148 16.7281C19.224 16.3503 20.7983 14.4578 20.7983 12.4196V11.1349H21.9141C22.6261 11.1349 23.2031 10.5596 23.2031 9.85006C23.2031 9.14052 22.6261 8.56527 21.9141 8.56527H19.5092C18.7983 8.56527 18.2201 7.989 18.2201 7.28048V5.13916H25.7813V25.6958Z" transform="translate(46.4146 39.7424)" fill="#E4643C"/>
</svg>
