<svg width="30" height="30" viewBox="0 0 30 30" fill="none" xmlns="http://www.w3.org/2000/svg">
<path d="M4.49181 1.31917C4.03942 0.505486 3.193 0 2.28296 0C1.37292 0 0.526495 0.505486 0.0740991 1.31917C-0.0828808 1.60165 0.0177102 1.9586 0.29884 2.11645C0.580086 2.27424 0.935273 2.17317 1.09231 1.89069C1.33886 1.44732 1.79511 1.17187 2.28301 1.17187C2.77092 1.17187 3.22711 1.44732 3.47366 1.89069C3.58049 2.08276 3.77881 2.19098 3.98326 2.19098C4.07948 2.19098 4.17715 2.16696 4.26713 2.11645C4.54826 1.9586 4.64885 1.60165 4.49181 1.31917Z" transform="translate(16.0226 9.88879)" fill="#E4643C"/>
<path d="M4.49195 1.31923C4.0395 0.505427 3.19308 0 2.28304 0C1.37294 0 0.526575 0.505486 0.0741791 1.31917C-0.0829174 1.60171 0.0176736 1.9586 0.298803 2.11645C0.579991 2.27424 0.935294 2.17317 1.09227 1.89069C1.33882 1.44732 1.79507 1.17187 2.28304 1.17187C2.771 1.17187 3.22719 1.44732 3.47368 1.89069C3.58051 2.08276 3.77883 2.19098 3.98334 2.19098C4.07956 2.19098 4.17717 2.16696 4.26721 2.11651C4.54834 1.95872 4.64899 1.60171 4.49195 1.31923Z" transform="translate(8.56982 9.88879)" fill="#E4643C"/>
<path d="M27.7388 4.75187C27.4573 4.4224 27.1871 4.09826 26.9257 3.78484C25.824 2.46344 24.8725 1.32222 23.807 0.645231C22.5696 -0.141093 21.2803 -0.204667 19.8658 0.450759C19.779 0.490954 19.6293 0.573688 18.989 1.01308C17.71 0.327127 16.2485 0 14.5793 0C12.9101 0 11.4486 0.327127 10.1695 1.01302C9.52955 0.573805 9.37974 0.491013 9.29279 0.4507C7.87823 -0.204725 6.58897 -0.141093 5.3515 0.645231C4.28606 1.32222 3.33455 2.46344 2.23278 3.7849C1.97148 4.09832 1.70119 4.42245 1.41977 4.75187C0.220905 6.15547 -0.231549 7.80792 0.111392 9.53074C0.482441 11.3948 1.77467 13.173 3.45497 14.1727C3.28266 15.234 3.1395 16.7748 3.1907 18.3278C2.62733 19.4059 2.41909 20.6855 2.60494 21.934C2.79393 23.2039 3.385 24.3893 4.26926 25.2719C5.34888 26.3495 6.81336 26.9554 8.5044 27.0244C8.6149 27.0289 8.7261 27.0311 8.83812 27.0311C9.57375 27.0311 10.3422 26.9339 11.1402 26.7407C11.2463 28.5558 12.748 30 14.5794 30C16.4071 30 17.9063 28.5616 18.0178 26.7516C18.816 26.9449 19.5847 27.0421 20.3206 27.0421C20.4324 27.0421 20.5439 27.0399 20.6542 27.0354C22.3453 26.9665 23.8098 26.3605 24.8894 25.2829C25.7736 24.4003 26.3647 23.2149 26.5537 21.945C26.7396 20.6964 26.5313 19.4166 25.9677 18.3384C25.9684 18.3159 25.9691 18.2937 25.9698 18.2726C26.0099 16.9366 25.9108 15.4334 25.7037 14.1727C27.384 13.173 28.6763 11.3949 29.0473 9.5308C29.3902 7.80798 28.9377 6.15547 27.7388 4.75187ZM14.5793 1.17187C17.1165 1.17187 19.0011 1.98479 20.5102 3.73017C22.2613 5.75545 23.5601 9.10102 24.4803 13.955C24.481 13.9591 24.4819 13.9632 24.4826 13.9673C24.4868 13.9894 24.4911 14.0109 24.4952 14.0329C24.6232 14.7134 24.7487 15.7167 24.7942 16.8216C24.3058 16.3806 23.7334 16.0231 23.0901 15.7626C21.8257 15.2508 20.3359 15.121 18.6557 15.3724C18.5641 15.1293 18.4206 14.9017 18.2245 14.7077C17.8761 14.3632 17.4151 14.1734 16.9266 14.1734L12.2361 14.1696C11.4491 14.1696 10.7755 14.6652 10.5064 15.362C8.82477 15.1098 7.33364 15.2394 6.06847 15.7515C5.42515 16.0119 4.85275 16.3694 4.36449 16.8104C4.40986 15.7165 4.53377 14.7215 4.66329 14.0328C4.66725 14.0117 4.67139 13.9912 4.67536 13.9702C4.67641 13.9649 4.67763 13.9595 4.67845 13.9541C5.59858 9.10055 6.89733 5.75534 8.64837 3.73017C10.1575 1.98479 12.0422 1.17187 14.5793 1.17187ZM17.4135 16.519L15.0709 18.9238C14.9368 19.0578 14.7616 19.1316 14.5772 19.1316C14.3948 19.1316 14.2228 19.0584 14.0936 18.9263L11.8132 16.5854C11.8031 16.5751 11.7926 16.5651 11.7817 16.5555C11.6327 16.4237 11.5473 16.2338 11.5473 16.0346C11.5474 15.6525 11.8563 15.3416 12.2355 15.3416L16.9263 15.3453C17.107 15.3453 17.2775 15.4155 17.4063 15.5429C17.6759 15.8096 17.6795 16.2471 17.4135 16.519ZM1.25498 9.30088C0.984987 7.94439 1.34799 6.63529 2.3048 5.51516C2.59077 5.18042 2.86326 4.85359 3.12678 4.53747C5.42299 1.78341 6.62349 0.504313 8.79935 1.51247C8.81958 1.52278 8.8881 1.56163 9.10088 1.70278C6.5702 3.6342 4.85106 7.27127 3.69097 12.9309C2.47426 12.0707 1.53185 10.6917 1.25498 9.30088ZM16.8589 26.5353C16.8589 27.7995 15.8363 28.8281 14.5793 28.8281C13.3224 28.8281 12.2998 27.7995 12.2998 26.5353V26.3994C12.853 26.2087 13.4188 25.9747 13.9962 25.6982V26.7127C13.9962 27.0363 14.2573 27.2986 14.5793 27.2986C14.9014 27.2986 15.1625 27.0363 15.1625 26.7127V25.7093C15.7398 25.9858 16.3056 26.2198 16.8589 26.4105V26.5353ZM24.0674 24.4514C22.1112 26.4039 18.7875 26.3406 14.9392 24.283C14.9327 24.2779 14.9259 24.2733 14.9193 24.2685C14.9137 24.2645 14.9084 24.2602 14.9027 24.2564C14.8944 24.2509 14.8857 24.246 14.8771 24.2408C14.8693 24.236 14.8615 24.2311 14.8534 24.2268C14.8466 24.2232 14.8395 24.2201 14.8326 24.2167C14.8224 24.2117 14.8122 24.2067 14.8017 24.2023C14.7961 24.2 14.7903 24.1981 14.7846 24.196C14.7726 24.1915 14.7607 24.1869 14.7483 24.1832C14.7425 24.1814 14.7367 24.1803 14.7308 24.1787C14.7186 24.1753 14.7064 24.1719 14.6938 24.1694C14.6818 24.167 14.6696 24.1655 14.6574 24.1638C14.651 24.1629 14.6448 24.1616 14.6383 24.1609C14.5995 24.1569 14.5602 24.1569 14.5209 24.1609C14.5162 24.1614 14.5117 24.1623 14.507 24.1629C14.4928 24.1647 14.4786 24.1666 14.4645 24.1694C14.4552 24.1713 14.4461 24.1739 14.437 24.1763C14.4278 24.1786 14.4186 24.1806 14.4095 24.1834C14.3959 24.1875 14.3826 24.1926 14.3693 24.1978C14.3648 24.1995 14.3602 24.2009 14.3557 24.2028C14.3368 24.2107 14.3183 24.2195 14.3004 24.2293C10.4177 26.3296 7.06114 26.4066 5.09125 24.4404C3.64688 22.9988 3.28493 20.6511 4.23054 18.858C5.26106 16.904 7.51546 16.0702 10.4508 16.539C10.5448 16.8748 10.7313 17.1811 10.9937 17.4192L13.2611 19.7468C13.6121 20.1057 14.0796 20.3034 14.5774 20.3034C15.0742 20.3034 15.5432 20.107 15.8979 19.7503C15.8993 19.7489 15.9007 19.7475 15.9021 19.746L18.2464 17.3396C18.4698 17.1112 18.6225 16.8389 18.7048 16.5506C21.6416 16.0808 23.8973 16.9144 24.9283 18.8691C25.8737 20.662 25.5118 23.0098 24.0674 24.4514ZM27.9036 9.30094C27.6267 10.6918 26.6843 12.0708 25.4676 12.931C24.3075 7.27127 22.5883 3.6342 20.0576 1.70278C20.2697 1.56204 20.3369 1.52378 20.3542 1.51487C22.5349 0.504313 23.7355 1.78335 26.0317 4.53736C26.2953 4.85347 26.5678 5.1803 26.8538 5.5151C27.8107 6.63529 28.1737 7.94439 27.9036 9.30094Z" fill="#E4643C"/>
<path d="M0.583135 0C0.261944 0 0 0.263202 0 0.585934C0 0.908667 0.261944 1.17187 0.583135 1.17187C0.904325 1.17187 1.16627 0.908667 1.16627 0.585934C1.16627 0.26326 0.904325 0 0.583135 0Z" transform="translate(7.42136 18.6854)" fill="#E4643C"/>
<path d="M0.583135 0C0.261944 0 0 0.263202 0 0.585934C0 0.908667 0.261944 1.17187 0.583135 1.17187C0.904325 1.17187 1.16627 0.908667 1.16627 0.585934C1.16627 0.26326 0.904325 0 0.583135 0Z" transform="translate(6.19675 21.9081)" fill="#E4643C"/>
<path d="M0.583135 0C0.261944 0 0 0.263202 0 0.585934C0 0.908667 0.261944 1.17187 0.583135 1.17187C0.904325 1.17187 1.16627 0.908667 1.16627 0.585934C1.16627 0.26326 0.904325 0 0.583135 0Z" transform="translate(9.66653 21.0878)" fill="#E4643C"/>
<path d="M0.583135 0C0.261944 0 0 0.263202 0 0.585934C0 0.908667 0.261944 1.17187 0.583135 1.17187C0.904325 1.17187 1.16627 0.908667 1.16627 0.585934C1.16627 0.26326 0.904325 0 0.583135 0Z" transform="translate(20.571 18.6854)" fill="#E4643C"/>
<path d="M0.583135 0C0.261944 0 0 0.263202 0 0.585934C0 0.908667 0.261944 1.17187 0.583135 1.17187C0.904325 1.17187 1.16627 0.908667 1.16627 0.585934C1.16627 0.26326 0.904325 0 0.583135 0Z" transform="translate(21.7955 21.9081)" fill="#E4643C"/>
<path d="M0.583135 0C0.261944 0 0 0.263202 0 0.585934C0 0.908667 0.261944 1.17187 0.583135 1.17187C0.904325 1.17187 1.16627 0.908667 1.16627 0.585934C1.16627 0.26326 0.904325 0 0.583135 0Z" transform="translate(18.3259 21.0878)" fill="#E4643C"/>
<path d="M0.852509 0.0639688C0.565607 -0.0829248 0.214443 0.0317426 0.0681928 0.320139C0.0679012 0.320784 0.0630028 0.330628 0.0626529 0.331272C-0.082431 0.620196 0.0330295 0.972577 0.320515 1.11836C0.404778 1.16107 0.494406 1.18135 0.582751 1.18135C0.795829 1.18129 1.00121 1.06346 1.10384 0.859257C1.10419 0.858554 1.10711 0.852753 1.10798 0.850937C1.2533 0.562833 1.13912 0.210687 0.852509 0.0639688Z" transform="translate(7.71484 6.35124)" fill="#E4643C"/>
<path d="M4.29071 0.447402C4.21444 0.133048 3.89919 -0.0599588 3.58605 0.0168572C2.19003 0.358691 0.738194 1.86191 0.102927 2.78891C-0.0797693 3.05539 -0.012767 3.42026 0.252501 3.60377C0.3535 3.67367 0.468669 3.70719 0.58273 3.70719C0.768109 3.70719 0.950455 3.61854 1.06352 3.45348C1.71634 2.50081 2.94163 1.38079 3.86222 1.15539C4.17513 1.07875 4.36699 0.761814 4.29071 0.447402Z" transform="translate(8.55093 2.38857)" fill="#E4643C"/>
</svg>
