<svg xmlns="http://www.w3.org/2000/svg" width="16" height="16" fill="none">
  <path fill="#4A4A4A" fill-rule="evenodd" d="M0 8c0-1.10417.208331-2.14322.625-3.11719.41667-.97396.98698-1.82291 1.71094-2.54687C3.0599 1.61198 3.90885 1.04167 4.88281.625 5.85678.208331 6.89583 0 8 0c1.10417 0 2.1432.208331 3.1172.625.974.41667 1.8229.98698 2.5469 1.71094.7239.72396 1.2942 1.57291 1.7109 2.54687C15.7917 5.85678 16 6.89583 16 8c0 1.10417-.2083 2.1432-.625 3.1172-.4167.974-.987 1.8229-1.7109 2.5469-.724.7239-1.5729 1.2942-2.5469 1.7109C10.1432 15.7917 9.10417 16 8 16c-1.10417 0-2.14322-.2083-3.11719-.625-.97396-.4167-1.82291-.987-2.54687-1.7109-.72396-.724-1.29427-1.5729-1.71094-2.5469C.208331 10.1432 0 9.10417 0 8zm15.0156 0c0-.96875-.1849-1.8776-.5547-2.72656-.3698-.84897-.8724-1.58854-1.5078-2.21875-.6354-.63021-1.3776-1.13021-2.2265-1.5C9.8776 1.18489 8.96875 1 8 1s-1.8776.18489-2.72656.55469c-.84897.36979-1.58854.86979-2.21875 1.5-.63021.63021-1.13021 1.36978-1.5 2.21875C1.18489 6.1224 1 7.03125 1 8s.18489 1.8776.55469 2.7266c.36979.8489.86979 1.5885 1.5 2.2187.63021.6302 1.36978 1.1302 2.21875 1.5C6.1224 14.8151 7.03125 15 8 15s1.8776-.1849 2.7266-.5547c.8489-.3698 1.5911-.8698 2.2265-1.5.6354-.6302 1.138-1.3698 1.5078-2.2187.3698-.849.5547-1.75785.5547-2.7266zM7.5 4.5c0-.14583.04687-.26562.14062-.35938C7.73438 4.04687 7.85417 4 8 4c.13542 0 .2526.04687.35156.14062.09896.09376.14844.21355.14844.35938v5.6562l1.8281-1.8437c.1042-.09375.224-.14062.3594-.14062s.2552.04687.3594.14062c.0416.05208.0755.10938.1015.17188.0261.0625.0391.125.0391.1875s-.013.125-.0391.1875c-.026.0625-.0599.11979-.1015.17187L8.01562 11.9844 4.98438 9.03125c-.10417-.10417-.15626-.22396-.15626-.35937 0-.13542.05209-.25521.15626-.35938.09375-.09375.21093-.14062.35156-.14062.14062 0 .25781.04687.35156.14062L7.5 10.125V4.5z" clip-rule="evenodd"/>
</svg>
