<svg width="30" height="30" viewBox="0 0 30 30" fill="none" xmlns="http://www.w3.org/2000/svg">
<path d="M25.6465 12.1537C26.6493 11.2125 27.4123 9.94985 27.8248 8.5259C28.4089 6.50911 28.2269 4.40964 27.3252 2.7658C26.6374 1.51172 25.5653 0.619806 24.3064 0.254299C21.6605 -0.513688 18.7556 1.14475 17.3696 4.14251C16.4726 3.93785 15.5414 3.83144 14.5964 3.83144C13.6643 3.83144 12.7454 3.9348 11.8595 4.13413C10.4844 1.09553 7.56779 -0.58734 4.89574 0.187971C3.63691 0.553478 2.56479 1.44539 1.87693 2.69947C0.975307 4.34337 0.793254 6.44278 1.37736 8.45952C1.79437 9.89899 2.56935 11.174 3.58833 12.1181C1.26935 14.0809 0 16.5778 0 19.2114C0 22.1294 1.54313 24.8598 4.34521 26.9C7.09077 28.8991 10.7314 30 14.5965 30C18.4616 30 22.1023 28.8991 24.8478 26.9C27.6499 24.8599 29.193 22.1293 29.193 19.2114C29.193 16.5938 27.9389 14.1111 25.6465 12.1537ZM23.982 1.38C24.9549 1.66242 25.7572 2.33707 26.3023 3.33082C27.0555 4.70419 27.2018 6.47858 26.7036 8.19883C26.386 9.29518 25.831 10.2763 25.1067 11.0424C24.9633 10.4958 24.7624 9.96403 24.5083 9.45245C24.7852 9.04914 25.0025 8.59147 25.1426 8.10766C25.47 6.97739 25.3658 5.79685 24.8567 4.86866C24.4595 4.14445 23.8372 3.62847 23.1045 3.41578C21.8374 3.04775 20.4438 3.63978 19.5609 4.87031C19.22 4.71826 18.8699 4.58267 18.5125 4.46302C19.6821 2.09818 21.9447 0.78838 23.982 1.38ZM24.0213 7.78059C23.9689 7.96141 23.9023 8.13678 23.8236 8.30459C23.2758 7.52548 22.5926 6.81304 21.788 6.19329C21.4173 5.90776 21.0263 5.64626 20.6182 5.40989C21.2092 4.67742 22.041 4.32685 22.7799 4.54142C23.3348 4.70243 23.6592 5.11558 23.8338 5.43374C24.1944 6.0914 24.2628 6.94675 24.0213 7.78059ZM2.4987 8.13245C2.00042 6.41226 2.14668 4.63792 2.89994 3.26449C3.44504 2.27068 4.24735 1.59609 5.22026 1.31367C7.28088 0.715255 9.55566 2.0482 10.7169 4.45077C10.3619 4.56831 10.0144 4.70214 9.67565 4.85156C8.79504 3.58617 7.38767 2.97486 6.09789 3.34939C5.36512 3.56208 4.74277 4.07812 4.34556 4.8024C3.83648 5.73058 3.73231 6.91106 4.05969 8.04139C4.20233 8.5337 4.4245 8.99834 4.70809 9.40651C4.45235 9.91369 4.24933 10.4412 4.10266 10.9834C3.37498 10.2162 2.81732 9.23237 2.4987 8.13245ZM8.61813 5.38528C8.19441 5.62821 7.78873 5.89763 7.40507 6.19317C6.61251 6.80372 5.93755 7.50415 5.39397 8.26956C5.30872 8.09237 5.23667 7.90651 5.18097 7.71415C4.93948 6.8803 5.00779 6.02501 5.36851 5.3673C5.54303 5.04907 5.86749 4.63599 6.42235 4.47492C7.17969 4.25478 8.02596 4.62251 8.61813 5.38528ZM14.5964 28.8281C9.27984 28.8281 4.67504 26.604 2.50074 23.3868C4.39303 20.9708 7.78389 19.3484 11.9235 18.881C12.2549 19.4994 13.036 19.9602 14.0139 20.0925L14.0159 21.2369C13.8146 21.5131 13.4988 21.6801 13.1636 21.6801C12.7846 21.6801 12.43 21.4667 12.2381 21.1232C12.0805 20.8409 11.7246 20.7404 11.4433 20.8985C11.162 21.0567 11.0618 21.4139 11.2194 21.6961C11.5184 22.2314 12.0128 22.6144 12.5797 22.772V23.5342C12.5797 24.2288 13.1435 24.7939 13.8365 24.7939H15.36C16.0531 24.7939 16.6169 24.2288 16.6169 23.5342V22.772C17.1838 22.6143 17.6782 22.2313 17.9771 21.6961C18.1348 21.4139 18.0346 21.0567 17.7533 20.8985C17.472 20.7404 17.1162 20.8409 16.9585 21.1231C16.7666 21.4667 16.412 21.6801 16.0329 21.6801C15.6994 21.6801 15.3848 21.5147 15.1834 21.2409L15.1814 20.0921C16.1257 19.9637 16.8858 19.5287 17.2343 18.9417C21.4308 19.4935 24.6294 20.9551 26.7553 23.2904C24.6086 26.5593 19.9659 28.8281 14.5964 28.8281ZM13.7475 22.772C14.0603 22.685 14.3505 22.5285 14.5985 22.3165C14.8465 22.5285 15.1366 22.685 15.4494 22.772V23.5342C15.4494 23.581 15.4077 23.6221 15.3603 23.6221H13.8368C13.7893 23.6221 13.7476 23.581 13.7476 23.5342V22.772H13.7475ZM14.5964 18.9593C13.588 18.9593 12.9191 18.5084 12.9191 18.2103C12.9191 17.9121 13.5881 17.4613 14.5964 17.4613C15.6048 17.4613 16.2737 17.9121 16.2737 18.2103C16.2739 18.5084 15.6049 18.9593 14.5964 18.9593ZM23.043 19.2766C21.4083 18.5599 19.5021 18.0563 17.3712 17.7776C17.0878 16.9155 15.9708 16.2893 14.5965 16.2893C13.2583 16.2893 12.1635 16.8832 11.8454 17.7103C7.57585 18.1826 4.01648 19.83 1.87956 22.3026C1.41824 21.3319 1.16769 20.2921 1.16769 19.2112C1.16769 16.7612 2.46349 14.4243 4.81645 12.6311C4.94164 12.5358 5.0232 12.3937 5.04271 12.2372C5.04481 12.2203 5.04749 12.2036 5.04971 12.1867C5.05 12.1848 5.05024 12.1828 5.05053 12.1808C5.16695 11.3048 5.44529 10.4753 5.85955 9.71225C5.89662 9.66479 5.92529 9.6127 5.94585 9.55791C6.75965 8.13977 8.04687 6.96245 9.62964 6.16019C9.6614 6.14987 9.69281 6.13728 9.72335 6.1211C9.74466 6.1098 9.76469 6.09702 9.78401 6.08354C10.3597 5.80394 10.9729 5.57349 11.6153 5.39823C11.6492 5.39214 11.6831 5.383 11.7166 5.37058C12.6271 5.13157 13.5948 5.00325 14.5966 5.00325C15.6099 5.00325 16.5882 5.13474 17.5078 5.37902C17.5428 5.39208 17.5782 5.40193 17.6137 5.40796C18.2552 5.58526 18.8673 5.81759 19.4418 6.09913C19.4598 6.11185 19.4785 6.12386 19.4982 6.1347C19.5305 6.15245 19.5639 6.1664 19.5978 6.17747C21.182 6.98805 22.4669 8.17551 23.2732 9.60391C23.2927 9.65571 23.3197 9.70504 23.3539 9.75039C23.7656 10.5193 24.0405 11.3549 24.1505 12.2371C24.1506 12.2387 24.1511 12.2404 24.1513 12.242C24.1531 12.2552 24.1556 12.2682 24.1582 12.2813C24.1594 12.287 24.1603 12.2928 24.1617 12.2986C24.1648 12.3119 24.1687 12.3251 24.1728 12.3382C24.1744 12.3436 24.1758 12.349 24.1776 12.3542C24.1818 12.3665 24.1868 12.3786 24.1919 12.3906C24.1944 12.3967 24.1966 12.4027 24.1993 12.4086C24.2039 12.4189 24.2094 12.4289 24.2148 12.439C24.2187 12.4464 24.2224 12.454 24.2267 12.4612C24.2315 12.4695 24.237 12.4774 24.2423 12.4855C24.2479 12.494 24.2534 12.5027 24.2594 12.511C24.2607 12.5127 24.2617 12.5146 24.263 12.5164C24.2661 12.5205 24.2698 12.524 24.273 12.5281C24.282 12.5396 24.2914 12.5508 24.3013 12.5616C24.3073 12.568 24.3134 12.5743 24.3195 12.5803C24.3283 12.5891 24.3374 12.5976 24.3468 12.6058C24.3541 12.6121 24.3614 12.6184 24.3688 12.6244C24.3715 12.6265 24.374 12.6289 24.3767 12.631C26.7296 14.4241 28.0254 16.7611 28.0254 19.2112C28.0254 20.2607 27.7885 21.2712 27.3525 22.2175C26.1761 21.0044 24.7307 20.0166 23.043 19.2766Z" fill="#E4643C"/>
<path d="M4.82439 0.441215C4.74463 0.127622 4.42659 -0.0616943 4.11428 0.0183446C2.60198 0.405649 1.24359 1.13256 0.186073 2.12022C-0.0499299 2.3407 -0.0632416 2.71148 0.156471 2.94832C0.271436 3.07236 0.427506 3.13512 0.583985 3.13512C0.726392 3.13512 0.86915 3.08314 0.981663 2.97809C1.88346 2.13574 3.09851 1.48793 4.403 1.15383C4.71544 1.07379 4.90409 0.75475 4.82439 0.441215Z" transform="translate(7.86447 6.20335)" fill="#E4643C"/>
<path d="M0.91048 0.0984614C0.642189 -0.0810109 0.279719 -0.00829647 0.10082 0.260941C0.0976085 0.265687 0.0918865 0.27471 0.0887919 0.279574C-0.0820502 0.554085 0.00103537 0.915549 0.274523 1.08705C0.370746 1.1474 0.477711 1.17617 0.583393 1.17617C0.776364 1.17617 0.965014 1.0802 1.07618 0.905295C1.25024 0.636585 1.1769 0.276645 0.91048 0.0984614Z" transform="translate(6.8063 9.41992)" fill="#E4643C"/>
<path d="M4.50517 1.31871C4.05126 0.505311 3.20242 0 2.28982 0C1.37728 0 0.528442 0.505253 0.0745363 1.31859C-0.0829935 1.60089 0.0173176 1.95802 0.298688 2.11611C0.579999 2.27431 0.935871 2.17353 1.0934 1.89123C1.34108 1.4475 1.79954 1.17181 2.28988 1.17181C2.78028 1.17181 3.2388 1.44744 3.48636 1.89117C3.59338 2.08294 3.79184 2.19093 3.99632 2.19093C4.09289 2.19093 4.19081 2.16685 4.28101 2.11611C4.56238 1.95802 4.66275 1.60095 4.50517 1.31871Z" transform="translate(16.0465 12.3047)" fill="#E4643C"/>
<path d="M4.50519 1.31871C4.05129 0.505311 3.20251 0 2.28991 0C1.37731 0 0.52847 0.505253 0.0745645 1.31859C-0.0830237 1.60089 0.0173445 1.95802 0.298656 2.11611C0.579967 2.27431 0.93584 2.17353 1.09337 1.89123C1.34105 1.4475 1.79957 1.17181 2.28991 1.17181C2.78031 1.17181 3.23876 1.44744 3.48633 1.89117C3.59335 2.08294 3.79181 2.19093 3.99629 2.19093C4.09286 2.19093 4.19077 2.16685 4.28104 2.11611C4.56241 1.95802 4.66278 1.60101 4.50519 1.31871Z" transform="translate(8.56683 12.3047)" fill="#E4643C"/>
</svg>
