<svg xmlns="http://www.w3.org/2000/svg" width="16" height="16" fill="none">
  <path fill="#4A4A4A" fill-rule="evenodd" d="M9 11.5c.13542 0 .2526.0495.35156.1484.09896.099.14844.2162.14844.3516 0 .1354-.04948.2526-.14844.3516C9.2526 12.4505 9.13542 12.5 9 12.5H7c-.13542 0-.2526-.0495-.35156-.1484C6.54948 12.2526 6.5 12.1354 6.5 12c0-.1354.04948-.2526.14844-.3516C6.7474 11.5495 6.86458 11.5 7 11.5h.5v-4H7c-.13542 0-.2526-.04948-.35156-.14844C6.54948 7.2526 6.5 7.13542 6.5 7c0-.13542.04948-.2526.14844-.35156C6.7474 6.54948 6.86458 6.5 7 6.5h1c.13542 0 .2526.04948.35156.14844C8.45052 6.7474 8.5 6.86458 8.5 7v4.5H9zm-1-6c-.28125 0-.51823-.09635-.71094-.28906C7.09635 5.01823 7 4.78125 7 4.5s.09635-.51823.28906-.71094C7.48177 3.59635 7.71875 3.5 8 3.5s.51823.09635.71094.28906C8.90365 3.98177 9 4.21875 9 4.5s-.09635.51823-.28906.71094C8.51823 5.40365 8.28125 5.5 8 5.5zM8 0c1.10417 0 2.1432.208331 3.1172.625.974.41667 1.8229.98698 2.5469 1.71094.7239.72396 1.2942 1.57291 1.7109 2.54687C15.7917 5.85678 16 6.89583 16 8c0 1.10417-.2083 2.1432-.625 3.1172-.4167.974-.987 1.8229-1.7109 2.5469-.724.7239-1.5729 1.2942-2.5469 1.7109C10.1432 15.7917 9.10417 16 8 16c-1.10417 0-2.14322-.2083-3.11719-.625-.97396-.4167-1.82291-.987-2.54687-1.7109-.72396-.724-1.29427-1.5729-1.71094-2.5469C.208331 10.1432 0 9.10417 0 8c0-1.10417.208331-2.14322.625-3.11719.41667-.97396.98698-1.82291 1.71094-2.54687C3.0599 1.61198 3.90885 1.04167 4.88281.625 5.85678.208331 6.89583 0 8 0zm0 15.0156c.96875 0 1.8776-.1849 2.7266-.5547.8489-.3698 1.5885-.8724 2.2187-1.5078.6302-.6354 1.1302-1.3776 1.5-2.2265C14.8151 9.8776 15 8.96875 15 8s-.1849-1.8776-.5547-2.72656c-.3698-.84897-.8698-1.58854-1.5-2.21875-.6302-.63021-1.3698-1.13021-2.2187-1.5C9.8776 1.18489 8.96875 1 8 1s-1.8776.18489-2.72656.55469c-.84897.36979-1.58854.86979-2.21875 1.5-.63021.63021-1.13021 1.36978-1.5 2.21875C1.18489 6.1224 1 7.03125 1 8s.18489 1.8776.55469 2.7266c.36979.8489.86979 1.5911 1.5 2.2265.63021.6354 1.36978 1.138 2.21875 1.5078.84896.3698 1.75781.5547 2.72656.5547z" clip-rule="evenodd"/>
</svg>
