<svg width="65" height="60" viewBox="0 0 65 60" fill="none" xmlns="http://www.w3.org/2000/svg">
<path d="M7.48758 0.86964C7.4221 0.327976 6.93115 -0.0585508 6.38811 0.0073103L0.869668 0.673934C0.328004 0.73942 -0.0581478 1.2315 0.00721254 1.77329C0.0678148 2.27476 0.494158 2.64301 0.986864 2.64301C1.02643 2.64301 1.06637 2.64063 1.10657 2.63574L6.625 1.96912C7.16692 1.90364 7.55294 1.41155 7.48758 0.86964Z" transform="translate(20.625 25.9094)" fill="#E4643C"/>
<path d="M62.0761 1.26438C60.6953 0.131598 58.9104 -0.265071 57.18 0.176173C57.1767 0.176925 57.1734 0.177926 57.1701 0.178803C53.1889 1.19439 49.2681 2.5637 45.5108 4.2508C43.3802 3.71352 41.1779 3.44131 38.9591 3.44131C36.7404 3.44131 34.5382 3.71352 32.4077 4.2508C28.6493 2.56333 24.7272 1.19364 20.7448 0.178052C20.7425 0.177551 20.7405 0.17705 20.7382 0.176299C19.0078 -0.264821 17.2231 0.131598 15.8422 1.26451C14.4614 2.39742 13.7235 4.06999 13.8182 5.8535C14.0414 10.0684 14.6427 14.2895 15.6052 18.4046C14.9137 20.0982 14.4364 21.8685 14.1853 23.6718C13.6787 27.3133 14.4912 30.8996 16.4838 33.9815C16.3065 34.0938 16.1331 34.2114 15.9637 34.3337C13.3309 33.8363 10.9239 32.454 9.15132 30.4078C7.27027 28.2369 6.23452 25.4618 6.23452 22.5939C6.23452 19.6321 7.32599 16.791 9.30771 14.5939C10.459 13.3176 10.3575 11.3429 9.08107 10.1913C8.46291 9.63376 7.66418 9.35066 6.83291 9.39285C6.00125 9.43567 5.23634 9.79979 4.67865 10.418C1.66143 13.7626 0 18.0868 0 22.594C0 26.6036 1.28492 30.4084 3.71577 33.5968C5.85613 36.4043 8.81062 38.5524 12.1139 39.7298C11.8226 40.6849 11.6664 41.6877 11.6664 42.7099V55.5388C11.6664 57.9987 13.6676 60 16.1276 60C18.5875 60 20.5886 57.9987 20.5886 55.5388V52.9337C21.0508 52.9967 21.5173 53.0282 21.9848 53.0282H25.4254V55.5388C25.4254 57.9987 27.4265 60 29.8866 60C32.3465 60 34.3476 57.9989 34.3476 55.5388V52.9668C34.729 52.9288 35.1057 52.8707 35.4781 52.7967V55.5388C35.4781 57.9987 37.4792 60 39.9393 60C42.3993 60 44.4004 57.9987 44.4004 55.5388V44.7074C44.6829 43.7751 44.8486 42.8034 44.8915 41.8099H46.5976C51.8356 41.8099 56.7312 39.637 60.0292 35.8485C63.0304 32.4008 64.3458 28.0764 63.7328 23.6719C63.4819 21.8688 63.0046 20.0985 62.313 18.4049C63.2757 14.2899 63.8765 10.0687 64.0999 5.85375C64.1947 4.06999 63.457 2.3973 62.0761 1.26438ZM17.0953 2.79209C17.7469 2.25756 18.5379 1.97746 19.3529 1.97746C19.6488 1.97746 19.948 2.01453 20.2448 2.08965C20.247 2.09015 20.2492 2.09065 20.2514 2.09141C23.0081 2.79422 25.7349 3.67182 28.3959 4.71083C27.9047 5.46009 27.2581 6.1058 26.5055 6.59651C25.105 6.02241 23.6618 5.54423 22.198 5.17085C21.2557 4.93082 20.285 5.14656 19.533 5.7631C19.3448 5.91761 19.1784 6.09053 19.0356 6.27822C17.9803 5.45796 17.2044 4.32943 16.8185 3.04564C16.9058 2.95737 16.9977 2.87222 17.0953 2.79209ZM27.1071 9.53897C25.5742 11.2909 23.7737 12.768 21.7557 13.9293C21.616 14.0096 21.4884 13.9757 21.4249 13.9485C21.3617 13.9212 21.2501 13.8525 21.2118 13.6975C21.2115 13.6966 21.2113 13.6955 21.211 13.6945C20.7744 11.8817 20.503 10.0184 20.4043 8.15614C20.3865 7.81982 20.5256 7.50429 20.7861 7.29068C21.0466 7.07707 21.383 7.00244 21.7099 7.08558C23.5167 7.54624 25.2912 8.17655 26.9838 8.95912C27.1302 9.02686 27.1762 9.15057 27.1906 9.21818C27.2049 9.28592 27.2133 9.41764 27.1071 9.53897ZM12.8681 37.9015C9.88606 36.8596 7.21643 34.9293 5.2873 32.3987C3.12089 29.5575 1.97608 26.1669 1.97608 22.5939C1.97608 18.5765 3.45683 14.7225 6.14575 11.7416C6.34984 11.5154 6.62981 11.3821 6.9342 11.3664C7.23934 11.3508 7.53096 11.4546 7.75722 11.6586C8.22438 12.0801 8.26157 12.8031 7.84011 13.2701C5.53033 15.8308 4.25819 19.1422 4.25819 22.5936C4.25819 25.9369 5.46535 29.1716 7.65767 31.7016C9.40738 33.721 11.6886 35.1864 14.2119 35.9397C13.6907 36.541 13.2393 37.1994 12.8681 37.9015ZM13.6425 42.9671C14.9646 43.3888 15.9281 44.6319 15.9281 46.0863C15.9281 47.5471 14.9663 48.7871 13.6425 49.207V42.9671ZM42.4246 55.5388C42.4246 56.9092 41.3097 58.024 39.9394 58.024C38.5691 58.024 37.4542 56.9092 37.4542 55.5388V52.2182C37.9181 52.0366 38.3699 51.8253 38.8074 51.5852C39.6603 52.7987 40.9618 53.6299 42.4245 53.8908V55.5388H42.4246ZM40.4539 50.4906C40.8307 50.1913 41.1923 49.8685 41.5348 49.5203C41.8535 49.1965 42.1486 48.8556 42.4246 48.5029V51.8644C41.6343 51.6421 40.938 51.1592 40.4539 50.4906ZM40.1265 48.1345C38.322 49.9681 35.9127 51.0026 33.3424 51.0476C32.8035 51.0572 32.3716 51.4967 32.3716 52.0356V55.539C32.3716 56.9093 31.2567 58.0242 29.8866 58.0242C28.5162 58.0242 27.4014 56.9093 27.4014 55.539V52.0404C27.4014 51.4948 26.9591 51.0524 26.4133 51.0524H21.9847C21.2644 51.0524 20.547 50.9595 19.8525 50.7764C19.5563 50.6983 19.2405 50.762 18.9976 50.9491C18.7548 51.1362 18.6127 51.4253 18.6127 51.7317V55.5388C18.6127 56.9092 17.4978 58.024 16.1277 58.024C14.7574 58.024 13.6425 56.9092 13.6425 55.5388V51.2412C16.0662 50.7776 17.9041 48.6431 17.9041 46.0864C17.9041 43.6036 16.1536 41.5058 13.8222 40.9708C14.2922 38.7267 15.6637 36.7811 17.658 35.5764C17.7341 35.6676 17.8106 35.7585 17.8888 35.8485C21.1868 39.6371 26.0824 41.8101 31.3205 41.8101H42.9142C42.7898 44.1927 41.8117 46.4222 40.1265 48.1345ZM62.127 5.74908C61.9042 9.95242 61.2952 14.1617 60.3169 18.2601C60.2678 18.4657 60.2861 18.6819 60.369 18.8765C61.0607 20.5011 61.5341 22.2061 61.7759 23.9444C62.3089 27.7742 61.1592 31.5411 58.539 34.5513C55.6164 37.9086 51.2641 39.8342 46.5979 39.8342H31.3202C26.654 39.8342 22.3015 37.9087 19.379 34.5512C16.7587 31.5411 15.6092 27.7741 16.1421 23.9444C16.3841 22.2061 16.8576 20.501 17.5491 18.8764C17.632 18.6818 17.6503 18.4657 17.6012 18.2599C16.6229 14.1616 16.0139 9.9523 15.7911 5.74895C15.7876 5.68284 15.7864 5.61698 15.7864 5.55137C16.4445 6.63683 17.3465 7.56702 18.4315 8.26683C18.5368 10.2462 18.8253 12.2268 19.2892 14.1536C19.2894 14.1551 19.2898 14.1564 19.2901 14.1579C19.4648 14.8836 19.9584 15.469 20.6441 15.7639C20.9443 15.8929 21.2596 15.9571 21.5737 15.9571C21.9767 15.9571 22.3776 15.8514 22.7413 15.642C24.9485 14.372 26.9175 12.7564 28.5943 10.8404C29.0857 10.2787 29.2787 9.53772 29.1235 8.80749C29.0235 8.33695 28.7891 7.92174 28.4539 7.60158C29.1651 6.99455 29.7745 6.27108 30.2512 5.46673C30.8071 5.70237 31.36 5.94428 31.909 6.19383C32.1169 6.28836 32.3513 6.3079 32.5725 6.24917C34.6437 5.69724 36.7925 5.41727 38.959 5.41727C41.1257 5.41727 43.2744 5.69724 45.3454 6.2493C45.5661 6.30802 45.8008 6.28874 46.0089 6.19395C49.7601 4.48745 53.6823 3.10712 57.6667 2.09128L57.6763 2.08878C58.7883 1.80805 59.9349 2.06398 60.8225 2.79209C61.7125 3.52207 62.1878 4.59976 62.127 5.74908Z" fill="#E4643C"/>
<path d="M6.62513 0.673886L1.10669 0.00726235C0.566153 -0.0583484 0.072698 0.327928 0.00721254 0.869592C-0.0581478 1.41126 0.328004 1.90359 0.869668 1.96895L6.38811 2.63557C6.42842 2.64046 6.46824 2.64283 6.50781 2.64283C7.00051 2.64283 7.42686 2.27459 7.48746 1.77312C7.55295 1.23133 7.16692 0.739246 6.62513 0.673886Z" transform="translate(49.798 25.9097)" fill="#E4643C"/>
<path d="M4.75012 0.210893L0.377993 3.64331C-0.0513567 3.98026 -0.125983 4.60143 0.210961 5.03053C0.40579 5.27882 0.695905 5.40841 0.988774 5.40841C1.20213 5.40841 1.41725 5.33955 1.59818 5.19756L5.97031 1.76514C6.39966 1.4282 6.47428 0.807149 6.13734 0.377799C5.80039 -0.0511747 5.17922 -0.12605 4.75012 0.210893Z" transform="translate(22.8982 28.9504)" fill="#E4643C"/>
<path d="M5.97028 3.64323L1.59827 0.210816C1.16893 -0.125877 0.548 -0.0513761 0.210931 0.377848C-0.126012 0.807073 -0.0512601 1.42812 0.377839 1.76519L4.74997 5.19761C4.93102 5.3396 5.14601 5.40846 5.3595 5.40846C5.65249 5.40846 5.94248 5.27887 6.13731 5.03057C6.47412 4.60135 6.3995 3.9803 5.97028 3.64323Z" transform="translate(48.6715 28.9504)" fill="#E4643C"/>
<path d="M9.64324 0.688091C8.8916 0.0715507 7.92033 -0.144314 6.97787 0.0959669C5.05412 0.586419 3.16494 1.25743 1.36277 2.09071C0.685251 2.40399 0.20757 3.00237 0.0524337 3.73248C-0.102703 4.46271 0.090121 5.20371 0.581701 5.76541C2.2584 7.68152 4.22748 9.29699 6.43458 10.5671C6.79844 10.7765 7.19912 10.8822 7.6023 10.8822C7.9162 10.8822 8.23149 10.8182 8.53187 10.689C9.21753 10.3941 9.71111 9.80873 9.8859 9.08301C9.88615 9.08163 9.8864 9.08038 9.88678 9.079C10.3512 7.14999 10.6399 5.1674 10.7449 3.18606C10.7963 2.21504 10.3948 1.30476 9.64324 0.688091ZM7.96504 8.6196C7.96479 8.62048 7.96453 8.6216 7.96428 8.62248C7.92597 8.77762 7.81441 8.84623 7.75117 8.87353C7.68782 8.90082 7.56035 8.93463 7.42024 8.85425C5.40233 7.69304 3.60192 6.21592 2.06896 4.46396C1.96266 4.34263 1.97105 4.21091 1.98532 4.14317C1.99972 4.07543 2.0458 3.95172 2.19217 3.88411C3.8849 3.10166 5.65927 2.47122 7.46669 2.01045C7.55409 1.98803 7.64199 1.97714 7.72926 1.97714C7.96767 1.97714 8.19918 2.05915 8.38988 2.21554C8.65044 2.42915 8.78943 2.74469 8.77165 3.081C8.67311 4.9434 8.40152 6.80679 7.96504 8.6196Z" transform="translate(48.7422 5.07495)" fill="#E4643C"/>
<path d="M1.97608 2.5627V0.988043C1.97608 0.442372 1.53384 0 0.988041 0C0.442245 0 0 0.442372 0 0.988043V2.5627C0 3.10837 0.442245 3.55074 0.988041 3.55074C1.53384 3.55074 1.97608 3.10837 1.97608 2.5627Z" transform="translate(47.8611 18.8269)" fill="#E4643C"/>
<path d="M0.988041 0C0.442245 0 0 0.442372 0 0.988043V2.5627C0 3.10837 0.442245 3.55074 0.988041 3.55074C1.53384 3.55074 1.97608 3.10837 1.97608 2.5627V0.988043C1.97608 0.442247 1.53384 0 0.988041 0Z" transform="translate(28.0806 18.8271)" fill="#E4643C"/>
<path d="M12.4783 7.1577C9.96869 7.1577 8.77844 6.04846 8.224 5.13742C8.95536 4.87648 9.61335 4.42522 10.126 3.81494L10.9256 2.86245C11.3658 2.33819 11.4597 1.62674 11.1704 1.0062C10.8811 0.38565 10.276 0 9.59131 0H3.87504C3.19026 0 2.58524 0.385525 2.296 1.0062C2.00676 1.62674 2.10067 2.33819 2.54079 2.86245L3.34051 3.81494C3.85313 4.42534 4.51111 4.87648 5.24247 5.13754C4.68791 6.04871 3.49753 7.15783 0.988041 7.15783C0.442245 7.15783 0 7.6002 0 8.14587C0 8.69154 0.442245 9.13391 0.988041 9.13391C1.45671 9.13391 1.89745 9.10098 2.3129 9.04113V10.1044C2.3129 12.5419 4.29587 14.5249 6.73336 14.5249C9.17085 14.5249 11.1538 12.5419 11.1538 10.1044V9.04113C11.5691 9.10098 12.0098 9.13391 12.4787 9.13391C13.0245 9.13391 13.4667 8.69154 13.4667 8.14587C13.4663 7.59995 13.0241 7.1577 12.4783 7.1577ZM4.85381 2.54404L4.37664 1.97571H9.08959L8.61253 2.54392C8.14499 3.10061 7.45996 3.4199 6.73299 3.4199C6.00626 3.42015 5.3211 3.10073 4.85381 2.54404ZM9.17761 10.1043C9.17761 11.4522 8.08101 12.5487 6.73311 12.5487C5.38534 12.5487 4.28873 11.4521 4.28873 10.1043V8.47806C4.84555 8.22663 5.33037 7.9146 5.74519 7.56076V9.39974C5.74519 9.94541 6.18744 10.3878 6.73324 10.3878C7.27903 10.3878 7.72128 9.94541 7.72128 9.39974V7.56076C8.13598 7.9146 8.6208 8.22638 9.17774 8.47806V10.1043H9.17761Z" transform="translate(32.2257 22.814)" fill="#E4643C"/>
</svg>
