<svg xmlns="http://www.w3.org/2000/svg" width="16" height="16" fill="none">
  <path fill="#4A4A4A" fill-rule="evenodd" d="M8.32812 10.3281L10.1562 8.5H.5c-.135417 0-.252604-.04948-.351562-.14844C.0494787 8.2526 0 8.13542 0 8c0-.14583.0494787-.26562.148438-.35938C.247396 7.54687.364583 7.5.5 7.5h9.625L8.32812 5.6875c-.10416-.09375-.15624-.21094-.15624-.35156 0-.14063.05208-.25781.15624-.35156.09376-.10417.20834-.15626.34376-.15626.13541 0 .2552.05209.35937.15626l2.95315 3.03124-2.95315 3.03128c-.05208.0416-.10937.0755-.17187.1015-.0625.0261-.125.0391-.1875.0391s-.125-.013-.1875-.0391c-.0625-.026-.11459-.0599-.15626-.1015-.10416-.1042-.15624-.224-.15624-.3594s.05208-.2552.15624-.3594zM15 0c.2813 0 .5182.0963532.7109.289062C15.9036.481772 16 .718749 16 1v14c0 .2813-.0964.5182-.2891.7109-.1927.1927-.4296.2891-.7109.2891H6c-.27083 0-.50521-.0964-.70312-.2891C5.09896 15.5182 5 15.2813 5 15v-4.5156h1.01562v3.9062c0 .1667.0573.3099.17188.4297.11458.1198.25521.1797.42188.1797h7.78122c.1667 0 .3099-.0599.4297-.1797.1198-.1198.1797-.263.1797-.4297l-.0156-12.78122c0-.16667-.0599-.3099-.1797-.42969C14.6849 1.0599 14.5417 1 14.375 1H6.60938c-.16667 0-.3073.0599-.42188.17969-.11458.11979-.17188.26302-.17188.42969V5.5H5V1c0-.281251.09896-.518228.29688-.710938C5.49479.0963532 5.72917 0 6 0h9z" clip-rule="evenodd"/>
</svg>
