<svg width="20" height="20" viewBox="0 0 20 20" fill="none" xmlns="http://www.w3.org/2000/svg">
<path d="M8.64062 0.808993V1.9594C8.64062 2.18611 8.45718 2.36955 8.23047 2.36955C8.00376 2.36955 7.82031 2.18611 7.82031 1.9594V1.13449C7.5612 1.21674 7.28473 1.2839 7 1.34282V2.77971C7 3.00642 6.81655 3.18987 6.58984 3.18987C6.36314 3.18987 6.17969 3.00642 6.17969 2.77971V1.47284C5.91363 1.5038 5.64017 1.52425 5.35938 1.53467V1.9594C5.35938 2.18611 5.17593 2.36955 4.94922 2.36955C4.72251 2.36955 4.53906 2.18611 4.53906 1.9594V1.53467C4.25827 1.52425 3.9848 1.50377 3.71875 1.47284V2.77971C3.71875 3.00642 3.5353 3.18987 3.30859 3.18987C3.08189 3.18987 2.89844 3.00642 2.89844 2.77971V1.34282C2.61371 1.2839 2.30989 1.21674 2.05078 1.13449V1.9594C2.05078 2.18611 1.86733 2.36955 1.64062 2.36955C1.41392 2.36955 1.23047 2.18611 1.23047 1.9594V0.808993C0.745801 0.580836 0.325445 0.310953 0 0V2.36955C0 3.73125 2.23398 4.83049 4.94922 4.83049C7.66445 4.83049 9.87109 3.73125 9.87109 2.36955V0C9.54565 0.31098 9.12529 0.580836 8.64062 0.808993Z" transform="translate(3 9.19293)" fill="#E4643C"/>
<path d="M4.94922 0C2.23092 0 0 1.10179 0 2.46094C0 3.82009 2.23092 4.92188 4.94922 4.92188C7.66752 4.92188 9.87109 3.82009 9.87109 2.46094C9.87109 1.10179 7.66752 0 4.94922 0ZM4.94922 3.69141C3.78003 3.69141 2.89844 3.16228 2.89844 2.46094C2.89844 1.7596 3.78003 1.23047 4.94922 1.23047C6.11841 1.23047 7 1.7596 7 2.46094C7 3.16228 6.11841 3.69141 4.94922 3.69141Z" transform="translate(3 5)" fill="#E4643C"/>
<path d="M1.23047 0C0.436598 0 0 0.308027 0 0.410156C0 0.512285 0.436598 0.820312 1.23047 0.820312C2.02434 0.820312 2.46094 0.512285 2.46094 0.410156C2.46094 0.308027 2.02434 0 1.23047 0Z" transform="translate(6.71875 7.05078)" fill="#E4643C"/>
<path d="M0.410156 0.0400585C0.270867 0.0400585 0.136336 0.0157227 0 0V4.92187C0.136992 4.9347 0.270812 4.96193 0.410156 4.96193C0.636863 4.96193 0.820312 4.77848 0.820312 4.55178V0.450215C0.820312 0.223508 0.636863 0.0400585 0.410156 0.0400585Z" transform="translate(16.1797 9.06152)" fill="#E4643C"/>
<path d="M0.668363 0.3605L0.307863 0V3.86124C0.307863 4.24845 0.19682 4.61431 0 4.95368L0.0883748 5.04205C0.613429 5.5671 1.28264 5.92244 1.97583 6.12587V1.17094C1.50183 0.995641 1.0363 0.728438 0.668363 0.3605Z" transform="translate(13.3835 7.70135)" fill="#E4643C"/>
</svg>
