<svg width="20" height="16" viewBox="0 0 20 16" fill="none" xmlns="http://www.w3.org/2000/svg">
<path fill-rule="evenodd" clip-rule="evenodd" d="M0.234375 1.46484C0.15625 1.3737 0.0976564 1.2793 0.0585938 1.18164C0.0195311 1.08398 0 0.970053 0 0.839844C0 0.722656 0.0195311 0.61198 0.0585938 0.507812C0.0976564 0.403645 0.15625 0.3125 0.234375 0.234375C0.3125 0.15625 0.403645 0.0976564 0.507812 0.0585938C0.61198 0.0195311 0.722656 0 0.839844 0H18.6719C18.7891 0 18.8997 0.0195311 19.0039 0.0585938C19.1081 0.0976564 19.1992 0.15625 19.2773 0.234375C19.3555 0.3125 19.4141 0.403645 19.4531 0.507812C19.4922 0.61198 19.5117 0.722656 19.5117 0.839844C19.5117 0.970053 19.4922 1.08398 19.4531 1.18164C19.4141 1.2793 19.3555 1.3737 19.2773 1.46484C19.1992 1.54297 19.1081 1.60156 19.0039 1.64062C18.8997 1.67969 18.7891 1.69922 18.6719 1.69922H0.839844C0.722656 1.69922 0.61198 1.67969 0.507812 1.64062C0.403645 1.60156 0.3125 1.54297 0.234375 1.46484ZM19.2773 7.03125C19.3555 7.10938 19.4141 7.20052 19.4531 7.30469C19.4922 7.40885 19.5117 7.51953 19.5117 7.63672C19.5117 7.75391 19.4922 7.86458 19.4531 7.96875C19.4141 8.07292 19.3555 8.16406 19.2773 8.24219C19.1992 8.32031 19.1081 8.37891 19.0039 8.41797C18.8997 8.45703 18.7891 8.47656 18.6719 8.47656H0.839844C0.722656 8.47656 0.61198 8.45703 0.507812 8.41797C0.403645 8.37891 0.3125 8.32031 0.234375 8.24219C0.15625 8.16406 0.0976564 8.07292 0.0585938 7.96875C0.0195311 7.86458 0 7.75391 0 7.63672C0 7.51953 0.0195311 7.40885 0.0585938 7.30469C0.0976564 7.20052 0.15625 7.10938 0.234375 7.03125C0.3125 6.95312 0.403645 6.89453 0.507812 6.85547C0.61198 6.81641 0.722656 6.79688 0.839844 6.79688H18.6719C18.7891 6.79688 18.8997 6.81641 19.0039 6.85547C19.1081 6.89453 19.1992 6.95312 19.2773 7.03125ZM19.2773 13.8086C19.3555 13.8867 19.4141 13.9779 19.4531 14.082C19.4922 14.1862 19.5117 14.2969 19.5117 14.4141C19.5117 14.5443 19.4922 14.6582 19.4531 14.7559C19.4141 14.8535 19.3555 14.9479 19.2773 15.0391C19.1992 15.1172 19.1081 15.1758 19.0039 15.2148C18.8997 15.2539 18.7891 15.2734 18.6719 15.2734H0.839844C0.722656 15.2734 0.61198 15.2539 0.507812 15.2148C0.403645 15.1758 0.3125 15.1172 0.234375 15.0391C0.15625 14.9479 0.0976564 14.8535 0.0585938 14.7559C0.0195311 14.6582 0 14.5443 0 14.4141C0 14.2969 0.0195311 14.1862 0.0585938 14.082C0.0976564 13.9779 0.15625 13.8867 0.234375 13.8086C0.3125 13.7305 0.403645 13.6719 0.507812 13.6328C0.61198 13.5937 0.722656 13.5742 0.839844 13.5742H18.6719C18.7891 13.5742 18.8997 13.5937 19.0039 13.6328C19.1081 13.6719 19.1992 13.7305 19.2773 13.8086Z" transform="translate(0.292969 0.574219)" fill="#4A4A4A"/>
</svg>
