<svg width="61" height="60" viewBox="0 0 61 60" fill="none" xmlns="http://www.w3.org/2000/svg">
<path d="M6.4846 0.936169C6.4846 0.41907 6.06541 0 5.54843 0H0.936288C0.419189 0 0 0.419188 0 0.936169C0 1.45327 0.419189 1.87246 0.936288 1.87246H5.54843C6.06541 1.87246 6.4846 1.45327 6.4846 0.936169Z" transform="translate(18.3798 30.7183)" fill="#E4643C"/>
<path d="M0.936052 3.52781C1.45315 3.52781 1.87234 3.10862 1.87234 2.59152C1.87234 2.19504 2.19492 1.87246 2.59141 1.87246C2.98789 1.87246 3.31047 2.19504 3.31047 2.59152C3.31047 3.10862 3.72966 3.52781 4.24676 3.52781C4.76386 3.52781 5.18305 3.10862 5.18305 2.59152C5.18305 1.16261 4.02055 0 2.59152 0C1.16261 0 1.0002e-07 1.1625 1.0002e-07 2.59152C-0.000236396 3.10874 0.418953 3.52781 0.936052 3.52781Z" transform="translate(19.8212 23.9731)" fill="#E4643C"/>
<path d="M4.40025 0C1.97392 0 0 1.97391 0 4.40024C0 6.82658 1.97392 8.80049 4.40025 8.80049C6.82646 8.80049 8.80049 6.82658 8.80049 4.40024C8.80049 1.97391 6.82646 0 4.40025 0ZM4.40025 6.92803C3.00634 6.92803 1.87246 5.79403 1.87246 4.40024C1.87246 3.00634 3.00646 1.87246 4.40025 1.87246C5.79404 1.87246 6.92804 3.00646 6.92804 4.40024C6.92804 5.79403 5.79415 6.92803 4.40025 6.92803Z" transform="translate(25.8712 27.2542)" fill="#E4643C"/>
<path d="M47.4406 0C42.0964 0 37.3363 3.2238 35.3265 8.10768C33.7099 7.69168 32.0161 7.47032 30.2716 7.47032C28.5271 7.47032 26.8333 7.6918 25.2167 8.10768C23.2066 3.22368 18.4467 0 13.1025 0C5.87764 0 0 5.87764 0 13.1024C0 16.2241 1.11638 19.2478 3.14362 21.6164C4.95306 23.7307 7.38743 25.2097 10.0695 25.8472C10.0101 26.4781 9.97836 27.1171 9.97836 27.7632C9.97836 33.1243 12.025 37.2203 16.0613 39.9372C16.7304 40.3877 17.4564 40.7963 18.2334 41.1632C16.8725 43.3772 16.1579 45.902 16.1579 48.5324C16.1579 49.3299 16.2256 50.0881 16.3577 50.8064C13.6709 49.6525 11.2839 47.7866 9.52334 45.4324C7.35042 42.5268 6.20199 39.0676 6.20199 35.4282V31.7079C6.20199 31.1908 5.7828 30.7716 5.2657 30.7716C4.7486 30.7716 4.32941 31.1908 4.32941 31.7079V35.4282C4.32941 39.4749 5.60697 43.3219 8.02384 46.5538C10.2863 49.579 13.4797 51.8799 17.045 53.0696C17.2337 53.4982 17.4518 53.9072 17.6989 54.2959C16.8171 54.8379 16.2346 55.8096 16.2346 56.9188C16.2346 58.6178 17.6168 60 19.3158 60H25.5089C26.1798 60 26.8339 59.7756 27.3658 59.3739C28.2837 59.4757 29.2526 59.5281 30.2714 59.5281C31.29 59.5281 32.2588 59.4758 33.177 59.3739C33.7089 59.7757 34.363 60 35.0338 60H41.2269C42.9259 60 44.3081 58.6178 44.3081 56.9188C44.3081 55.8096 43.7256 54.8379 42.8439 54.2959C43.8562 52.7029 44.385 50.7709 44.385 48.5324C44.385 45.902 43.6704 43.3772 42.3095 41.1632C43.0866 40.7963 43.8123 40.3877 44.4817 39.9372C48.518 37.2202 50.5646 33.1243 50.5646 27.7632C50.5646 27.117 50.5329 26.4781 50.4735 25.847C53.1554 25.2095 55.5898 23.7305 57.3993 21.6162C59.4266 19.2478 60.543 16.2241 60.543 13.1024C60.543 5.87764 54.6654 0 47.4406 0ZM10.3324 23.986C8.10129 23.4186 6.07949 22.1672 4.56615 20.399C2.82908 18.3692 1.87246 15.7778 1.87246 13.1022C1.87246 6.90994 6.91018 1.87222 13.1024 1.87222C17.6249 1.87222 21.6604 4.56485 23.4199 8.66155C22.1808 9.10735 20.9977 9.67032 19.8832 10.3372C18.7759 7.63362 16.1025 5.77878 13.1024 5.77878C9.06418 5.77878 5.7789 9.06407 5.7789 13.1022C5.7789 16.5597 8.17389 19.4736 11.4281 20.2321C10.947 21.4315 10.5779 22.6871 10.3324 23.986ZM18.281 11.4023C15.7568 13.2571 13.6754 15.6805 12.2281 18.4829C9.61865 18.0642 7.65136 15.8063 7.65136 13.1025C7.65136 10.0968 10.0967 7.65148 13.1024 7.65148C15.466 7.65136 17.5564 9.19769 18.281 11.4023ZM19.3159 58.1277C18.6495 58.1277 18.1072 57.5854 18.1072 56.9189C18.1072 56.4031 18.4294 55.9636 18.8875 55.7913C19.8255 56.7473 20.9953 57.53 22.3826 58.1277H19.3159ZM41.2271 58.1277H38.1604C39.5477 57.5303 40.7174 56.7473 41.6555 55.7913C42.1136 55.9636 42.4358 56.4031 42.4358 56.9189C42.4357 57.5855 41.8935 58.1277 41.2271 58.1277ZM42.5125 48.5325C42.5125 56.4704 34.8431 57.6557 30.2715 57.6557C25.6999 57.6557 18.0303 56.4704 18.0303 48.5325C18.0303 46.1503 18.7075 43.8688 19.9914 41.8895C22.8967 42.9338 26.375 43.4763 30.2716 43.4763C34.1681 43.4763 37.6464 42.934 40.5517 41.8895C41.8353 43.869 42.5125 46.1503 42.5125 48.5325ZM30.2715 41.6038C23.3919 41.6038 11.8508 39.8057 11.8508 27.7633C11.8508 17.6061 20.1142 9.34266 30.2715 9.34266C40.4288 9.34266 48.6922 17.6061 48.6922 27.7633C48.6922 39.8058 37.151 41.6038 30.2715 41.6038ZM42.262 11.4023C42.9865 9.19781 45.0769 7.65136 47.4405 7.65136C50.4461 7.65136 52.8915 10.0967 52.8915 13.1024C52.8915 15.8063 50.9242 18.0642 48.3148 18.4828C46.8676 15.6804 44.7862 13.2571 42.262 11.4023ZM55.9768 20.399C54.4635 22.1672 52.4417 23.4186 50.2108 23.986C49.9652 22.6872 49.5961 21.4315 49.1149 20.2321C52.369 19.4738 54.7641 16.5598 54.7641 13.1024C54.7641 9.06418 51.4788 5.7789 47.4406 5.7789C44.4404 5.7789 41.767 7.63374 40.6597 10.3374C39.5452 9.67056 38.3619 9.10734 37.123 8.66167C38.8826 4.56485 42.9181 1.87234 47.4406 1.87234C53.6327 1.87234 58.6705 6.91006 58.6705 13.1024C58.6705 15.778 57.7138 18.3694 55.9768 20.399Z" fill="#E4643C"/>
<path d="M4.47924 0.144581L0.436814 2.6946C-0.000466868 2.97047 -0.131367 3.54859 0.144505 3.98599C0.322468 4.26824 0.626484 4.42291 0.937358 4.42291C1.10811 4.42291 1.28087 4.3762 1.43589 4.27841L5.47832 1.72839C5.9156 1.45252 6.0465 0.874407 5.77063 0.437008C5.49476 -0.00050989 4.91652 -0.13141 4.47924 0.144581Z" transform="translate(19.5657 33.7021)" fill="#E4643C"/>
<path d="M0.93605 3.52781C1.45327 3.52781 1.87234 3.10862 1.87234 2.59152C1.87234 2.19504 2.19492 1.87246 2.59141 1.87246C2.98789 1.87246 3.31047 2.19504 3.31047 2.59152C3.31047 3.10862 3.72954 3.52781 4.24676 3.52781C4.76398 3.52781 5.18305 3.10862 5.18305 2.59152C5.18305 1.16261 4.02055 0 2.59152 0C1.16249 0 1.0002e-07 1.1625 1.0002e-07 2.59152C-0.000236396 3.10874 0.418951 3.52781 0.93605 3.52781Z" transform="translate(35.5392 23.9731)" fill="#E4643C"/>
<path d="M5.47844 2.69455L1.43601 0.144534C0.998492 -0.131338 0.420496 -0.000557592 0.144505 0.436842C-0.131368 0.874241 -0.000465571 1.45236 0.436816 1.72823L4.47924 4.27825C4.63439 4.37616 4.80714 4.42275 4.97789 4.42275C5.28865 4.42275 5.59255 4.26808 5.77075 3.98582C6.0465 3.54854 5.91572 2.97043 5.47844 2.69455Z" transform="translate(35.0621 33.7021)" fill="#E4643C"/>
<path d="M6.98083 4.25079C6.46668 3.78134 6.20122 3.11277 6.15853 2.92759C6.07576 1.26278 4.67416 -0.0472903 3.0032 0.00130963C1.30492 0.0442337 -0.0419259 1.46096 0.000998162 3.15936C0.040493 4.72012 0.929127 7.06994 2.82571 8.80157C3.39483 9.32127 4.13247 9.60731 4.90262 9.60731C5.76666 9.60731 6.59628 9.24156 7.17866 8.60362C7.73359 7.99582 8.01869 7.20841 7.98132 6.38611C7.94396 5.56429 7.58862 4.80584 6.98083 4.25079ZM5.79598 7.3412C5.56421 7.59508 5.24695 7.73497 4.90273 7.73497C4.60085 7.73497 4.31161 7.62275 4.08836 7.41889C2.67281 6.12644 1.90231 4.27396 1.87298 3.11206C1.85607 2.44585 2.38452 1.89008 3.05286 1.87306C3.06398 1.87282 3.07509 1.8727 3.08621 1.8727C3.7335 1.8727 4.26999 2.39205 4.28962 3.04537C4.29009 3.065 4.29139 3.08451 4.29328 3.10414C4.34508 3.66144 4.82162 4.81459 5.71865 5.63358C5.95703 5.85127 6.09633 6.14891 6.11111 6.47137C6.12542 6.79383 6.01367 7.10281 5.79598 7.3412Z" transform="translate(20.6561 43.9741)" fill="#E4643C"/>
<path d="M4.98092 0.00111769C4.15259 -0.0207582 3.37322 0.279122 2.77713 0.845057C2.19712 1.39597 1.86011 2.13597 1.8244 2.93474C1.78148 3.12015 1.51637 3.78813 1.00211 4.25745C-0.252385 5.40304 -0.34119 7.35579 0.804279 8.6104C1.38665 9.24823 2.21616 9.61409 3.08032 9.61409C3.8507 9.61409 4.58821 9.32793 5.15722 8.80835C7.05404 7.07661 7.94279 4.72655 7.98205 3.16591C8.00274 2.34349 7.70239 1.56128 7.13646 0.963186C6.56875 0.363668 5.80286 0.0219293 4.98092 0.00111769ZM3.89469 7.42567C3.67167 7.62942 3.38244 7.74164 3.08043 7.74164C2.73621 7.74164 2.41895 7.60187 2.18731 7.34787C1.73773 6.85572 1.77273 6.08971 2.26488 5.64037C3.16108 4.82233 3.64589 3.64008 3.6913 3.09863C3.69296 3.08042 3.69391 3.0622 3.69426 3.04388C3.7023 2.72189 3.83462 2.42319 4.06662 2.2029C4.29165 1.98922 4.58585 1.87263 4.89909 1.87263C4.9102 1.87263 4.92144 1.87275 4.93255 1.87299C5.25407 1.88115 5.55395 2.01512 5.77661 2.25031C5.99998 2.48622 6.11823 2.79473 6.11019 3.11873C6.08098 4.28052 5.31047 6.13311 3.89469 7.42567Z" transform="translate(31.9037 43.9673)" fill="#E4643C"/>
<path d="M5.5482 0H0.936169C0.418952 0 0 0.419188 0 0.936169C0 1.45327 0.41907 1.87246 0.936169 1.87246H5.5482C6.06541 1.87246 6.48448 1.45327 6.48448 0.936169C6.48437 0.419188 6.06518 0 5.5482 0Z" transform="translate(35.6788 30.7183)" fill="#E4643C"/>
</svg>
