<svg width="27" height="21" viewBox="0 0 27 21" fill="none" xmlns="http://www.w3.org/2000/svg">
<path d="M5.1948 2.63208C5.1948 4.08561 4.03191 3.13815 2.5974 3.13815C1.1629 3.13815 0 4.08561 0 2.63208C0 1.17854 0.876561 0.0192633 2.5974 0.000224021C4.31824 -0.0188152 5.1948 1.17854 5.1948 2.63208Z" transform="matrix(0.860224 0.509916 -0.490149 0.871638 8.90381 4.1317)" fill="#E2A28E"/>
<path d="M1.06417 0C0.477371 0 0 0.513224 0 1.14406C0 1.77491 0.4774 2.28816 1.06417 2.28816C1.651 2.28816 2.12834 1.77491 2.12834 1.14406C2.12834 0.513224 1.65094 0 1.06417 0Z" transform="matrix(0.860224 0.509916 -0.490149 0.871638 11.8103 2.09052)" fill="#E2A28E"/>
<path d="M1.06417 0C0.477341 0 0 0.513254 0 1.14409C0 1.77496 0.47737 2.28816 1.06417 2.28816C1.651 2.28816 2.12834 1.77493 2.12834 1.14409C2.12837 0.513254 1.651 0 1.06417 0Z" transform="matrix(0.860224 0.509916 -0.490149 0.871639 13.2463 4.17801)" fill="#E2A28E"/>
<path d="M1.06417 0C0.477371 0 0 0.513254 0 1.14409C0 1.77494 0.4774 2.28816 1.06417 2.28816C1.65097 2.28816 2.12834 1.77494 2.12834 1.14409C2.12834 0.513254 1.65097 0 1.06417 0Z" transform="matrix(0.860224 0.509916 -0.490149 0.871638 9.33154 1.85753)" fill="#E2A28E"/>
<path d="M5.1948 2.63207C5.1948 4.08561 4.0319 3.13815 2.5974 3.13815C1.1629 3.13815 0 4.08561 0 2.63207C0 1.17854 0.87656 0.0192633 2.5974 0.000224021C4.31824 -0.0188152 5.1948 1.17854 5.1948 2.63207Z" transform="matrix(0.860224 0.509915 -0.49015 0.871638 19.3379 3.43242)" fill="#E2A28E"/>
<path d="M1.06417 0C0.477371 0 0 0.513224 0 1.14406C0 1.7749 0.477399 2.28816 1.06417 2.28816C1.651 2.28816 2.12834 1.7749 2.12834 1.14406C2.12834 0.513224 1.65094 0 1.06417 0Z" transform="matrix(0.860224 0.509916 -0.490149 0.871639 22.2444 1.39104)" fill="#E2A28E"/>
<path d="M1.06417 0C0.477341 0 0 0.513253 0 1.14409C0 1.77496 0.477369 2.28816 1.06417 2.28816C1.65099 2.28816 2.12834 1.77493 2.12834 1.14409C2.12836 0.513253 1.65099 0 1.06417 0Z" transform="matrix(0.860224 0.509917 -0.490149 0.871639 23.6802 3.47845)" fill="#E2A28E"/>
<path d="M1.06417 0C0.477371 0 0 0.513253 0 1.14409C0 1.77493 0.4774 2.28816 1.06417 2.28816C1.65097 2.28816 2.12834 1.77493 2.12834 1.14409C2.12834 0.513253 1.65097 0 1.06417 0Z" transform="matrix(0.860225 0.509915 -0.49015 0.871638 19.7654 1.15816)" fill="#E2A28E"/>
<path d="M5.1948 2.63208C5.1948 4.08561 4.03191 3.13815 2.5974 3.13815C1.1629 3.13815 0 4.08561 0 2.63208C0 1.17854 0.876561 0.0192633 2.5974 0.000224021C4.31824 -0.0188152 5.1948 1.17854 5.1948 2.63208Z" transform="matrix(0.860225 0.509915 -0.49015 0.871638 3.09448 14.2037)" fill="#E2A28E"/>
<path d="M1.06417 0C0.477372 0 0 0.513224 0 1.14406C0 1.77491 0.477401 2.28816 1.06417 2.28816C1.651 2.28816 2.12834 1.77491 2.12834 1.14406C2.12834 0.513224 1.65094 0 1.06417 0Z" transform="matrix(0.860225 0.509915 -0.49015 0.871638 6.00098 12.1622)" fill="#E2A28E"/>
<path d="M1.06417 0C0.477341 0 0 0.513253 0 1.14409C0 1.77496 0.47737 2.28816 1.06417 2.28816C1.651 2.28816 2.12834 1.77493 2.12834 1.14409C2.12837 0.513253 1.651 0 1.06417 0Z" transform="matrix(0.860224 0.509916 -0.490149 0.871639 7.43677 14.2499)" fill="#E2A28E"/>
<path d="M1.06417 0C0.477371 0 0 0.513252 0 1.14409C0 1.77493 0.4774 2.28816 1.06417 2.28816C1.65097 2.28816 2.12834 1.77493 2.12834 1.14409C2.12834 0.513252 1.65097 0 1.06417 0Z" transform="matrix(0.860225 0.509914 -0.490151 0.871638 3.52197 11.9294)" fill="#E2A28E"/>
<path d="M5.19481 2.63208C5.19481 4.08561 4.03191 3.13815 2.5974 3.13815C1.1629 3.13815 0 4.08561 0 2.63208C0 1.17854 0.876561 0.0192633 2.5974 0.000224021C4.31824 -0.0188152 5.19481 1.17854 5.19481 2.63208Z" transform="matrix(0.860225 0.509915 -0.49015 0.871638 13.5286 13.5042)" fill="#E2A28E"/>
<path d="M1.06417 0C0.477372 0 0 0.513224 0 1.14406C0 1.77491 0.477401 2.28816 1.06417 2.28816C1.651 2.28816 2.12834 1.77491 2.12834 1.14406C2.12834 0.513224 1.65094 0 1.06417 0Z" transform="matrix(0.860225 0.509915 -0.49015 0.871638 16.4351 11.4628)" fill="#E2A28E"/>
<path d="M1.06417 0C0.477342 0 0 0.513253 0 1.14409C0 1.77496 0.47737 2.28816 1.06417 2.28816C1.651 2.28816 2.12834 1.77493 2.12834 1.14409C2.12837 0.513253 1.651 0 1.06417 0Z" transform="matrix(0.860225 0.509915 -0.49015 0.871638 17.8708 13.5505)" fill="#E2A28E"/>
<path d="M1.06417 0C0.477372 0 0 0.513253 0 1.14409C0 1.77493 0.4774 2.28816 1.06417 2.28816C1.65097 2.28816 2.12834 1.77493 2.12834 1.14409C2.12834 0.513253 1.65097 0 1.06417 0Z" transform="matrix(0.860225 0.509914 -0.490151 0.871638 13.9561 11.2299)" fill="#E2A28E"/>
</svg>
