<svg width="20" height="20" viewBox="0 0 20 20" fill="none" xmlns="http://www.w3.org/2000/svg">
<path d="M4.5 0C2.01472 0 0 2.01466 0 4.5C0 6.98534 2.01472 9 4.5 9C6.98528 9 9 6.98534 9 4.5C9 2.01466 6.98528 0 4.5 0ZM6.04503 6.44922L4.5 5.48341L2.95497 6.44922L3.5 4.71534L2 3.5H3.88197L4.5 1.94703L5.11803 3.5H7L5.5 4.71534L6.04503 6.44922Z" transform="translate(6 9)" fill="#E4643C"/>
<path d="M1 2V4C1 4.15722 1.07397 4.30566 1.19994 4.39991L3.19994 5.89991C3.28659 5.96484 3.39184 6 3.5 6H5.5C5.60816 6 5.71337 5.96484 5.80006 5.89991L7.80006 4.39991C7.92603 4.30566 8 4.15722 8 4V2C8.55225 2 9 1.55225 9 1C9 0.44775 8.55225 0 8 0H7.5H1.5H1C0.44775 0 0 0.44775 0 1C0 1.55225 0.44775 2 1 2ZM6 2V3.5C6 3.77612 5.77612 4 5.5 4C5.22388 4 5 3.77612 5 3.5V2H6ZM4 2V3.5C4 3.77612 3.77612 4 3.5 4C3.22388 4 3 3.77612 3 3.5V2H4Z" transform="translate(6 2)" fill="#E4643C"/>
</svg>
