<svg xmlns="http://www.w3.org/2000/svg" width="16" height="16" fill="none">
  <path fill="#4A4A4A" fill-rule="evenodd" d="M8 1c-.42709 0-.84896.08073-1.26562.24219-.41667.16146-.79167.36718-1.125.61719-.33334.25-.60157.52083-.80469.8125C4.60156 2.96354 4.5 3.23958 4.5 3.5V6c0 .48959.12239 1.11458.36719 1.875.24479.76042.6276 1.34896 1.14843 1.76562.13542.10417.23698.23698.30469.39848.06771.1614.09115.3307.07031.5078-.03124.1666-.09635.3203-.19531.4609s-.22656.2474-.38281.3203l-4.39062 2.0781c-.06251.0209-.14844.0704-.25782.1485C1.05469 13.6328 1 13.776 1 13.9844V15l13.9844-.0156v-.9688c0-.2708-.0651-.4401-.1953-.5078-.1302-.0677-.2006-.1016-.211-.1016l-4.3593-2.0624c-.1563-.073-.28651-.1797-.39068-.3204-.10416-.1406-.16666-.2994-.1875-.4765-.02083-.1771.00261-.3464.07032-.5078.06771-.1615.16927-.29431.30466-.39848.5417-.41666.9245-1.0078 1.1485-1.77343C11.388 7.10156 11.5 6.47917 11.5 6V3.5c0-.27083-.1042-.55208-.3125-.84375-.2083-.29167-.4766-.55989-.8047-.80469-.3281-.24479-.70311-.44791-1.12499-.60937C8.83594 1.08073 8.41667 1 8 1zm0-1c.55209 0 1.09635.104166 1.63281.3125.53649.208334 1.01559.479165 1.43749.8125.4219.33334.7656.70833 1.0313 1.125.2656.41667.3984.83333.3984 1.25V6c0 .30208-.0312.65104-.0938 1.04688-.0624.39583-.1666.79947-.3124 1.21093-.1459.41146-.3386.80729-.5782 1.1875-.2396.38021-.5312.70569-.875.97659L15 12.5l.4922.2734c.3281.1823.4922.4193.4922.711V15c0 .2708-.0964.5026-.2891.6953-.1927.1927-.4245.2891-.6953.2891H1c-.281251 0-.518228-.0964-.710938-.2891C.0963532 15.5026 0 15.2708 0 15v-1.5156c0-.2709.166665-.5026.5-.6953L1 12.5l4.39062-2.0781c-.35416-.2813-.65104-.61982-.89062-1.01565-.23958-.39583-.4349-.79948-.58594-1.21094-.15104-.41146-.25781-.8125-.32031-1.20312C3.53125 6.60156 3.5 6.27083 3.5 6V3.5c0-.41667.13021-.83333.39062-1.25.26042-.41667.60157-.79166 1.02344-1.125.42188-.333335.90365-.604166 1.44532-.8125C6.90104.104166 7.44791 0 8 0z" clip-rule="evenodd"/>
</svg>
