<svg width="63" height="60" viewBox="0 0 63 60" fill="none" xmlns="http://www.w3.org/2000/svg">
<path d="M62.4389 5.08255C61.9576 1.83454 58.9225 -0.416328 55.6747 0.0647803C48.9233 1.06533 43.4158 4.45543 38.8556 10.4198C36.8546 9.9725 34.7657 9.74079 32.6332 9.74079C30.1105 9.74079 27.6487 10.0648 25.3214 10.6871C20.9229 5.37712 15.6913 2.33518 9.34665 1.3947C6.09779 0.9131 3.06403 3.16458 2.58268 6.41271C2.34939 7.98629 2.74285 9.55646 3.69066 10.834C4.63847 12.1117 6.02698 12.9436 7.60057 13.1768C10.3205 13.58 12.5818 14.6953 14.6491 16.6589C11.3365 19.9533 9.53636 24.0295 9.53636 28.3385C9.53636 30.5979 10.0305 32.6973 10.9912 34.5956C9.76159 35.0829 8.63933 35.6892 7.64159 36.3923C6.81243 35.567 5.69078 35.0937 4.48563 35.0937C2.01221 35.0936 0 37.1056 0 39.5789C0 41.3873 1.08234 42.9837 2.68107 43.6855C2.57389 44.2676 2.51761 44.8609 2.51761 45.4627C2.51761 46.7947 2.78753 48.0995 3.31844 49.3474C3.17024 49.8148 3.08991 50.3121 3.08991 50.828V56.6553C3.08991 58.4997 4.59025 60 6.43448 60H12.4056C13.9608 60 15.2713 58.9332 15.644 57.4929C15.8784 57.5205 16.1133 57.5443 16.3488 57.5634C16.7457 58.9677 18.0376 60 19.567 60H23.1773C24.3923 60 25.4578 59.3487 26.0436 58.3771C26.6295 59.3487 27.695 60 28.9099 60H32.5202C34.3644 60 35.8648 58.4997 35.8648 56.6553C35.8648 54.8111 34.3644 53.3106 32.5202 53.3106H32.2544V50.0113C32.9814 48.5879 33.3741 47.0477 33.3741 45.4627C33.3741 45.2095 33.3613 44.956 33.3415 44.7025C39.3686 44.5948 44.8405 43.1126 48.813 40.5C53.3384 37.5236 55.7305 33.3183 55.7305 28.3385C55.7305 23.689 53.6352 19.3106 49.805 15.8932C52.023 13.5782 54.4649 12.285 57.4215 11.8468C60.6694 11.3654 62.9204 8.33104 62.4389 5.08255ZM7.88428 11.262C6.8222 11.1045 5.88501 10.5431 5.2452 9.68061C4.60563 8.81837 4.33999 7.75862 4.49747 6.69654C4.82244 4.50414 6.87054 2.98513 9.06294 3.30973C14.6653 4.14011 19.3384 6.76283 23.3093 11.3108C22.0738 11.7492 20.8863 12.2771 19.7583 12.8886C17.4234 10.4142 14.8564 8.69202 11.9293 7.633C11.4267 7.45135 10.8719 7.71113 10.6899 8.21384C10.508 8.71668 10.7681 9.27141 11.2707 9.4533C13.7825 10.3619 16.0089 11.8249 18.0508 13.9082C17.4746 14.2867 16.9177 14.6892 16.3826 15.1156C16.2826 15.1952 16.1847 15.2762 16.0868 15.3571C13.7123 13.0713 11.0211 11.7269 7.88428 11.262ZM3.22713 41.795C2.44815 41.3524 1.93579 40.5165 1.93579 39.5791C1.93579 38.1731 3.07966 37.0295 4.48551 37.0295C5.09748 37.0295 5.6721 37.2437 6.12416 37.6241C4.82391 38.8433 3.83727 40.2592 3.22713 41.795ZM12.4054 58.0642H6.43436C5.65758 58.0642 5.02558 57.4322 5.02558 56.6553V50.828C5.02558 49.1872 6.3605 47.8523 8.00135 47.8523C8.97748 47.8523 9.86169 48.3087 10.4272 49.1046C10.9925 49.9003 11.1325 50.8855 10.8113 51.8074L10.061 53.9601C9.95777 54.256 10.0045 54.5837 10.1859 54.8392C10.3675 55.0947 10.6617 55.2464 10.9749 55.2464H12.4053C13.1822 55.2464 13.8142 55.8784 13.8142 56.6553C13.8142 57.4322 13.1823 58.0642 12.4054 58.0642ZM23.1772 58.0642H19.5669C18.79 58.0642 18.1581 57.4322 18.1581 56.6553V50.3174C18.1581 49.5405 18.79 48.9085 19.5669 48.9085C20.3438 48.9085 20.9758 49.5405 20.9758 50.3174V54.2786C20.9758 54.8132 21.409 55.2465 21.9437 55.2465H23.1772C23.9541 55.2465 24.5861 55.8785 24.5861 56.6554C24.5861 57.4323 23.954 58.0642 23.1772 58.0642ZM25.2689 54.0482C24.6956 53.5874 23.9683 53.3106 23.1772 53.3106H22.9116V50.3174C22.9116 48.4732 21.4112 46.9727 19.5669 46.9727C17.7227 46.9727 16.2223 48.473 16.2223 50.3174V55.6089C15.9992 55.5871 15.7769 55.5621 15.5555 55.532C15.0929 54.2387 13.8557 53.3106 12.4054 53.3106H12.3373L12.6393 52.4442C13.1696 50.9227 12.9384 49.2967 12.0053 47.9833C11.072 46.6696 9.61265 45.9164 8.00135 45.9164C6.71013 45.9164 5.53452 46.418 4.6569 47.2355C4.52201 46.6532 4.4534 46.061 4.4534 45.4627C4.4534 41.543 7.39303 38.0012 12.0031 36.2815C13.121 37.8712 14.6104 39.2877 16.4539 40.5001C20.3107 43.0365 25.5804 44.508 31.3998 44.6901C31.4253 44.9473 31.4382 45.2054 31.4382 45.4627C31.4382 48.9231 29.0904 52.1649 25.2689 54.0482ZM32.52 55.2465C33.2969 55.2465 33.9287 55.8785 33.9287 56.6554C33.9287 57.4323 33.2969 58.0643 32.52 58.0643H28.9096C28.1327 58.0643 27.5007 57.4323 27.5007 56.6554V55.0212C28.5711 54.3551 29.516 53.5847 30.3184 52.7339V54.2786C30.3184 54.8132 30.7517 55.2465 31.2864 55.2465H32.52ZM53.7943 28.3385C53.7943 32.6355 51.7039 36.2816 47.7489 38.8827C43.9337 41.3919 38.5654 42.7738 32.6332 42.7738C26.7011 42.7738 21.3327 41.3919 17.5174 38.8827C13.5625 36.2816 11.472 32.6355 11.472 28.3385C11.472 19.1512 20.965 11.6767 32.6332 11.6767C44.3014 11.6767 53.7943 19.1512 53.7943 28.3385ZM57.1373 9.93209C53.732 10.4368 50.833 11.9895 48.3002 14.668C47.6525 14.1861 46.9768 13.7362 46.2746 13.3213C48.5019 10.8413 50.9558 9.13455 53.7509 8.12338C54.2536 7.94149 54.5136 7.38664 54.3317 6.88393C54.1497 6.38109 53.5947 6.12119 53.0923 6.30308C49.8554 7.47417 47.0459 9.46661 44.5205 12.3819C43.3629 11.8214 42.1499 11.3453 40.8928 10.9589C45.0332 5.80915 49.974 2.86696 55.9584 1.97994C58.1513 1.65472 60.199 3.17447 60.5241 5.36674C60.849 7.55902 59.3298 9.60712 57.1373 9.93209Z" fill="#E4643C"/>
<path d="M0.967954 0C0.433253 0 0 0.433376 0 0.967955V2.40933C0 2.94391 0.433253 3.37728 0.967954 3.37728C1.50265 3.37728 1.93591 2.94391 1.93591 2.40933V0.967955C1.93591 0.433376 1.50253 0 0.967954 0Z" transform="translate(45.2941 22.8894)" fill="#E4643C"/>
<path d="M0.967954 0C0.433253 0 0 0.433376 0 0.967955V2.40933C0 2.94391 0.433253 3.37728 0.967954 3.37728C1.50265 3.37728 1.93591 2.94391 1.93591 2.40933V0.967955C1.93579 0.433376 1.50253 0 0.967954 0Z" transform="translate(25.5194 22.8894)" fill="#E4643C"/>
<path d="M11.19 0H4.69804C2.10755 0 0 2.10755 0 4.69805C0 7.28854 2.10755 9.39609 4.69804 9.39609C5.92126 9.39609 7.08088 8.91632 7.94397 8.0923C8.80706 8.9162 9.96668 9.39609 11.1898 9.39609C13.7803 9.39609 15.8878 7.28854 15.8878 4.69805C15.8878 2.10755 13.7805 0 11.19 0ZM9.59727 1.93579L9.39938 2.17152C9.0373 2.60258 8.50699 2.84978 7.94421 2.84978C7.38131 2.84978 6.85089 2.60258 6.48905 2.17152L6.29091 1.93579H9.59727ZM11.19 7.4603C10.1979 7.4603 9.27682 6.92279 8.78594 6.05775C8.61406 5.75475 8.29263 5.56748 7.94409 5.56748C7.59581 5.56748 7.27413 5.75475 7.10224 6.05775C6.61137 6.92291 5.69029 7.46042 4.69804 7.46042C3.17488 7.46042 1.93579 6.22121 1.93579 4.69816C1.93579 3.40878 2.82513 2.32607 4.02173 2.0232C4.08204 2.2383 4.18861 2.44265 4.33999 2.62296L5.00641 3.41659C5.73692 4.28676 6.80791 4.78582 7.94421 4.78582C9.08039 4.78582 10.1513 4.28676 10.882 3.41659L11.5482 2.62296C11.6996 2.44265 11.8063 2.2383 11.8666 2.0232C13.0632 2.32607 13.9525 3.4089 13.9525 4.69816C13.9523 6.22109 12.7132 7.4603 11.19 7.4603Z" transform="translate(28.4305 25.8352)" fill="#E4643C"/>
</svg>
