<svg xmlns="http://www.w3.org/2000/svg" width="16" height="16" fill="none">
  <path fill="#4A4A4A" fill-rule="evenodd" d="M15 6.48438c.2396.04166.4661.15885.6797.35156.2135.19271.3203.42968.3203.71094v1c0 .27083-.1068.48958-.3203.65624-.2136.16667-.4401.28126-.6797.34376l-1.2969.3125c-.0521.15622-.1067.30472-.164.44532-.0573.1406-.1224.2786-.1953.4141l.6874 1.1562c.1355.2083.2188.4479.25.7188.0313.2708-.052.5052-.25.7031L13.3281 14c-.1979.1979-.4375.2891-.7187.2734-.2813-.0156-.5261-.0911-.7344-.2265l-1.125-.7188c-.1458.0729-.2917.1407-.4375.2031-.1458.0626-.3021.1198-.46875.1719L9.5625 15c-.04167.2396-.15885.4661-.35156.6797C9.01823 15.8932 8.78125 16 8.5 16h-1c-.27083 0-.48958-.1068-.65625-.3203C6.67708 15.4661 6.5625 15.2396 6.5 15l-.3125-1.2812c-.16667-.0521-.33333-.112-.5-.1797-.16667-.0677-.32812-.1433-.48438-.2266l-1.15624.7344c-.19792.1354-.44011.2109-.72657.2265-.28646.0157-.52343-.0755-.71093-.2734l-.71876-.7031c-.1875-.1979-.26562-.4323-.23437-.7031.03125-.2709.10937-.5105.23437-.7188l.73438-1.2188c-.0625-.125-.1224-.2526-.17969-.3828-.05729-.1302-.10677-.2682-.14843-.41402L1 9.54688c-.239585-.0625-.466145-.17709-.679688-.34376C.10677 9.03646 0 8.81771 0 8.54688v-1c0-.28126.10677-.51823.320312-.71094.213543-.19271.440103-.3099.679688-.35156l1.28125-.28126c.04167-.14583.09375-.29166.15625-.4375.0625-.14583.125-.28645.1875-.42187L1.89062 4.125c-.125-.20833-.20312-.44792-.23437-.71875s.04687-.50521.23437-.70313L2.60938 2c.1875-.19792.42447-.28906.71093-.27344.28646.01563.52865.09115.72657.22656l1.15624.73438c.15626-.08333.31511-.15885.47657-.22656.16146-.06771.32552-.12761.49219-.17969L6.5 1c.05208-.239585.16146-.466145.32812-.679688C6.99479.10677 7.21875 0 7.5 0h1c.28125 0 .51562.10677.70312.320312.18751.213543.3073.434895.35938.664063l.28125 1.312505c.15625.05208.30985.10937.46095.17187.151.0625.2995.13021.4453.20313l1.125-.71876c.2083-.13541.4531-.21093.7344-.22656.2812-.01562.5208.07552.7187.27344l.7031.70312c.198.19792.2813.4323.25.70313-.0312.27083-.1145.51042-.25.71875l-.6874 1.15625c.0729.14583.1432.29427.2109.44531.0677.15104.1224.3099.1641.47656L15 6.48438zm0 1.98437l.0156-.89063c-.0104-.01041-.0364-.02864-.0781-.05468s-.0885-.04427-.1406-.05469l-1.8594-.42187L12.7656 6.5c-.0312-.125-.0729-.25-.125-.375-.0521-.125-.1146-.25521-.1875-.39062l-.25-.5.9844-1.64063c.0313-.04167.0547-.08333.0703-.125.0156-.04167.0234-.07292.0234-.09375l-.6562-.64062c-.0312 0-.0651.0052-.1016.01562-.0364.01042-.0703.02604-.1015.04688l-1.6094 1.03124-.5156-.26562c-.125-.0625-.25-.1224-.37502-.17969-.12501-.05729-.25521-.10156-.39063-.13281l-.54687-.1875-.40626-1.89062c-.01041-.04167-.02604-.08073-.04687-.11719L8.5 1h-.92188c-.02083.02083-.04166.05208-.0625.09375-.02083.04167-.03645.09375-.04687.15625l-.45313 1.8125-.53124.17188c-.13542.04166-.27084.09114-.40626.14843-.13541.05729-.27083.1224-.40624.19531l-.51563.26563-1.67187-1.0625-.07813-.03906c-.03125-.01563-.0625-.02865-.09375-.03907l-.65625.65626c0 .03125.00781.0677.02344.10937.01562.04167.03906.08854.07031.14063l1.01562 1.6875-.25.48437c-.0625.13542-.11718.26042-.16406.375-.04687.11458-.08593.22917-.11718.34375l-.17188.54688-1.89062.42187c-.03126.01042-.06511.02604-.10157.04687-.03646.02084-.05989.03126-.07031.03126v.92187c.02083.02083.05208.03906.09375.05469.04167.01562.09375.02864.15625.03906l1.82812.46875.17188.53125c.03125.10417.07031.21094.11719.32031.04687.10938.10156.22139.16406.33599l.23437.4843L2.75 12.4062c-.03125.0417-.05469.0834-.07031.125-.01563.0417-.02344.0782-.02344.1094l.65625.6406c.03125 0 .0651-.0078.10156-.0234.03646-.0156.07031-.0338.10156-.0547l1.64063-1.0469.51563.2657c.13541.0729.27083.138.40624.1953.13542.0573.27084.1068.40626.1484l.53124.1719.46876 1.8437c.01041.0521.02343.0964.03906.1329.01562.0364.03385.0651.05468.0859h.90626c.01041-.0104.02864-.0365.05468-.0781.02604-.0417.04427-.0834.05469-.125L9 12.9375l.54688-.1875c.125-.0417.24999-.0885.375-.1406.12502-.0521.25002-.1094.37502-.1719l.5156-.2656 1.6406 1.0469.0781.039c.0313.0156.0626.0287.0938.0391l.6562-.6563c0-.0312-.0078-.0677-.0234-.1094-.0156-.0416-.039-.0885-.0703-.1406l-.9844-1.625.25-.5c.0625-.1146.1172-.2317.1641-.35154.0469-.11979.0911-.24218.1328-.36718l.1719-.51563 1.8593-.46875c.0521-.01042.0964-.02344.1329-.03906.0364-.01563.0651-.03386.0859-.05469zM8 5c.83334 0 1.54427.29166 2.1328.875.5886.58334.8828 1.29166.8828 2.125s-.2942 1.54166-.8828 2.125C9.54427 10.7083 8.83334 11 8 11c-.82292 0-1.52864-.2917-2.11719-.875C5.29427 9.54166 5 8.83334 5 8s.29427-1.54166.88281-2.125C6.47136 5.29166 7.17708 5 8 5zm0 5c.55209 0 1.02344-.19531 1.41406-.58594C9.80469 9.02344 10 8.55209 10 8c0-.55209-.19531-1.02344-.58594-1.41406C9.02344 6.19531 8.55209 6 8 6c-.55209 0-1.02344.19531-1.41406.58594C6.19531 6.97656 6 7.44791 6 8c0 .55209.19531 1.02344.58594 1.41406C6.97656 9.80469 7.44791 10 8 10z" clip-rule="evenodd"/>
</svg>
